G75*
%MOIN*%
%OFA0B0*%
%FSLAX25Y25*%
%IPPOS*%
%LPD*%
%AMOC8*
5,1,8,0,0,1.08239X$1,22.5*
%
%ADD10R,0.06299X0.07480*%
%ADD11OC8,0.06300*%
%ADD12C,0.06300*%
%ADD13R,0.07087X0.06693*%
%ADD14R,0.06400X0.02400*%
%ADD15R,0.06299X0.05512*%
%ADD16R,0.05512X0.06299*%
%ADD17R,0.05906X0.05118*%
%ADD18R,0.05118X0.05906*%
%ADD19R,0.03937X0.04331*%
%ADD20C,0.05937*%
%ADD21C,0.06000*%
%ADD22C,0.01600*%
%ADD23C,0.05000*%
%ADD24C,0.05000*%
%ADD25C,0.04000*%
%ADD26C,0.02400*%
%ADD27C,0.03962*%
%ADD28C,0.01200*%
%ADD29C,0.05600*%
D10*
X0151800Y0050304D03*
X0151800Y0063296D03*
X0206800Y0068296D03*
X0206800Y0055304D03*
X0146800Y0097804D03*
X0146800Y0110796D03*
X0206800Y0115796D03*
X0206800Y0102804D03*
D11*
X0019800Y0101800D03*
X0019800Y0066800D03*
D12*
X0033800Y0066800D03*
X0033800Y0101800D03*
D13*
X0167479Y0120550D03*
X0183621Y0120550D03*
X0184871Y0074300D03*
X0168729Y0074300D03*
D14*
X0166800Y0061800D03*
X0166800Y0056800D03*
X0166800Y0051800D03*
X0166800Y0046800D03*
X0191800Y0046800D03*
X0191800Y0051800D03*
X0191800Y0056800D03*
X0191800Y0061800D03*
X0191800Y0094300D03*
X0191800Y0099300D03*
X0191800Y0104300D03*
X0191800Y0109300D03*
X0166800Y0109300D03*
X0166800Y0104300D03*
X0166800Y0099300D03*
X0166800Y0094300D03*
D15*
X0056800Y0095184D03*
X0056800Y0085916D03*
D16*
X0065916Y0046800D03*
X0075184Y0046800D03*
X0075184Y0036800D03*
X0065916Y0036800D03*
D17*
X0126800Y0037954D03*
X0136800Y0037954D03*
X0136800Y0045646D03*
X0126800Y0045646D03*
X0136800Y0077954D03*
X0156800Y0077954D03*
X0156800Y0085646D03*
X0136800Y0085646D03*
X0046800Y0082954D03*
X0046800Y0090646D03*
D18*
X0046704Y0046800D03*
X0054396Y0046800D03*
X0054396Y0036800D03*
X0046704Y0036800D03*
D19*
X0178454Y0036800D03*
X0185146Y0036800D03*
X0252204Y0061800D03*
X0258896Y0061800D03*
X0185146Y0086800D03*
X0178454Y0086800D03*
X0252204Y0101800D03*
X0258896Y0101800D03*
X0348454Y0101800D03*
X0355146Y0101800D03*
X0355146Y0136800D03*
X0348454Y0136800D03*
X0257646Y0138050D03*
X0250954Y0138050D03*
X0349704Y0056800D03*
X0356396Y0056800D03*
D20*
X0109769Y0056800D02*
X0103831Y0056800D01*
X0103831Y0046800D02*
X0109769Y0046800D01*
X0109769Y0036800D02*
X0103831Y0036800D01*
X0103831Y0071800D02*
X0109769Y0071800D01*
X0109769Y0081800D02*
X0103831Y0081800D01*
X0103831Y0091800D02*
X0109769Y0091800D01*
X0109769Y0106800D02*
X0103831Y0106800D01*
X0103831Y0116800D02*
X0109769Y0116800D01*
X0109769Y0126800D02*
X0103831Y0126800D01*
D21*
X0089800Y0106800D02*
X0083800Y0106800D01*
X0083800Y0096800D02*
X0089800Y0096800D01*
X0089800Y0086800D02*
X0083800Y0086800D01*
X0083800Y0076800D02*
X0089800Y0076800D01*
X0089800Y0066800D02*
X0083800Y0066800D01*
X0083800Y0056800D02*
X0089800Y0056800D01*
D22*
X0008800Y0021300D02*
X0008800Y0106800D01*
X0021800Y0106800D01*
X0025550Y0103050D01*
X0025550Y0064300D01*
X0031800Y0056800D01*
X0036800Y0056800D01*
X0041800Y0061800D01*
X0041800Y0084300D01*
X0043050Y0085550D01*
X0048050Y0085550D01*
X0049300Y0084300D01*
X0049300Y0080550D01*
X0051800Y0078050D01*
X0061800Y0078050D01*
X0065550Y0081800D01*
X0065550Y0089300D01*
X0068050Y0091800D01*
X0094300Y0091800D01*
X0098050Y0088050D01*
X0098050Y0084300D01*
X0095550Y0081800D01*
X0078050Y0081800D01*
X0075550Y0079300D01*
X0075550Y0066800D01*
X0070550Y0061800D01*
X0070550Y0058050D01*
X0066800Y0054300D01*
X0051800Y0054300D01*
X0049300Y0051800D01*
X0049300Y0033050D01*
X0050550Y0031800D01*
X0062182Y0031800D01*
X0062332Y0031650D01*
X0069500Y0031650D01*
X0069650Y0031800D01*
X0071450Y0031800D01*
X0071600Y0031650D01*
X0078768Y0031650D01*
X0078918Y0031800D01*
X0261800Y0031800D01*
X0286800Y0056800D01*
X0336800Y0056800D01*
X0351800Y0041800D01*
X0416800Y0041800D01*
X0416800Y0021300D01*
X0008800Y0021300D01*
X0008800Y0022497D02*
X0416800Y0022497D01*
X0416800Y0024096D02*
X0008800Y0024096D01*
X0008800Y0025694D02*
X0416800Y0025694D01*
X0416800Y0027293D02*
X0008800Y0027293D01*
X0008800Y0028891D02*
X0416800Y0028891D01*
X0416800Y0030490D02*
X0026391Y0030490D01*
X0026167Y0030265D02*
X0028335Y0032433D01*
X0029509Y0035267D01*
X0029509Y0038333D01*
X0028335Y0041167D01*
X0026167Y0043335D01*
X0023333Y0044509D01*
X0020267Y0044509D01*
X0017433Y0043335D01*
X0015265Y0041167D01*
X0014091Y0038333D01*
X0014091Y0035267D01*
X0015265Y0032433D01*
X0017433Y0030265D01*
X0020267Y0029091D01*
X0023333Y0029091D01*
X0026167Y0030265D01*
X0027990Y0032088D02*
X0050262Y0032088D01*
X0049300Y0033687D02*
X0028854Y0033687D01*
X0029509Y0035285D02*
X0049300Y0035285D01*
X0049300Y0036884D02*
X0029509Y0036884D01*
X0029447Y0038482D02*
X0049300Y0038482D01*
X0049300Y0040081D02*
X0028785Y0040081D01*
X0027823Y0041679D02*
X0049300Y0041679D01*
X0049300Y0043278D02*
X0026224Y0043278D01*
X0017376Y0043278D02*
X0008800Y0043278D01*
X0008800Y0044876D02*
X0049300Y0044876D01*
X0049300Y0046475D02*
X0008800Y0046475D01*
X0008800Y0048073D02*
X0049300Y0048073D01*
X0049300Y0049672D02*
X0008800Y0049672D01*
X0008800Y0051270D02*
X0049300Y0051270D01*
X0050369Y0052869D02*
X0008800Y0052869D01*
X0008800Y0054467D02*
X0066967Y0054467D01*
X0068566Y0056066D02*
X0008800Y0056066D01*
X0008800Y0057664D02*
X0031080Y0057664D01*
X0029748Y0059263D02*
X0008800Y0059263D01*
X0008800Y0060861D02*
X0028416Y0060861D01*
X0027083Y0062460D02*
X0008800Y0062460D01*
X0008800Y0064058D02*
X0025751Y0064058D01*
X0025550Y0065657D02*
X0008800Y0065657D01*
X0008800Y0067255D02*
X0025550Y0067255D01*
X0025550Y0068854D02*
X0008800Y0068854D01*
X0008800Y0070452D02*
X0025550Y0070452D01*
X0025550Y0072051D02*
X0008800Y0072051D01*
X0008800Y0073649D02*
X0025550Y0073649D01*
X0025550Y0075248D02*
X0008800Y0075248D01*
X0008800Y0076846D02*
X0025550Y0076846D01*
X0025550Y0078445D02*
X0008800Y0078445D01*
X0008800Y0080043D02*
X0025550Y0080043D01*
X0025550Y0081642D02*
X0008800Y0081642D01*
X0008800Y0083240D02*
X0025550Y0083240D01*
X0025550Y0084839D02*
X0008800Y0084839D01*
X0008800Y0086437D02*
X0025550Y0086437D01*
X0025550Y0088036D02*
X0008800Y0088036D01*
X0008800Y0089634D02*
X0025550Y0089634D01*
X0025550Y0091233D02*
X0008800Y0091233D01*
X0008800Y0092832D02*
X0025550Y0092832D01*
X0025550Y0094430D02*
X0008800Y0094430D01*
X0008800Y0096029D02*
X0025550Y0096029D01*
X0025550Y0097627D02*
X0008800Y0097627D01*
X0008800Y0099226D02*
X0025550Y0099226D01*
X0025550Y0100824D02*
X0008800Y0100824D01*
X0008800Y0102423D02*
X0025550Y0102423D01*
X0024579Y0104021D02*
X0008800Y0104021D01*
X0008800Y0105620D02*
X0022980Y0105620D01*
X0029300Y0105620D02*
X0041800Y0105620D01*
X0041800Y0107218D02*
X0029300Y0107218D01*
X0029300Y0108817D02*
X0041800Y0108817D01*
X0041800Y0109300D02*
X0041800Y0096800D01*
X0036800Y0091800D01*
X0036800Y0066800D01*
X0034300Y0064300D01*
X0031800Y0064300D01*
X0029300Y0066800D01*
X0029300Y0114300D01*
X0026800Y0114300D01*
X0016800Y0124300D01*
X0008800Y0124300D01*
X0008800Y0146001D01*
X0246800Y0146001D01*
X0246800Y0140850D01*
X0207493Y0140850D01*
X0206464Y0140424D01*
X0197840Y0131800D01*
X0176800Y0131800D01*
X0171800Y0126800D01*
X0171800Y0106800D01*
X0171528Y0106800D01*
X0170828Y0107500D01*
X0162772Y0107500D01*
X0162172Y0106900D01*
X0157877Y0106900D01*
X0157754Y0107023D01*
X0157023Y0107754D01*
X0156067Y0108150D01*
X0145450Y0108150D01*
X0121800Y0131800D01*
X0096800Y0131800D01*
X0091800Y0126800D01*
X0051800Y0126800D01*
X0046800Y0121800D01*
X0046800Y0114300D01*
X0041800Y0109300D01*
X0042915Y0110415D02*
X0029300Y0110415D01*
X0029300Y0112014D02*
X0044514Y0112014D01*
X0046112Y0113612D02*
X0029300Y0113612D01*
X0025889Y0115211D02*
X0046800Y0115211D01*
X0046800Y0116809D02*
X0024291Y0116809D01*
X0022692Y0118408D02*
X0046800Y0118408D01*
X0046800Y0120006D02*
X0021094Y0120006D01*
X0019495Y0121605D02*
X0046800Y0121605D01*
X0048203Y0123203D02*
X0017897Y0123203D01*
X0018552Y0124802D02*
X0008800Y0124802D01*
X0008800Y0126400D02*
X0016298Y0126400D01*
X0015265Y0127433D02*
X0017433Y0125265D01*
X0020267Y0124091D01*
X0023333Y0124091D01*
X0026167Y0125265D01*
X0028335Y0127433D01*
X0029509Y0130267D01*
X0029509Y0133333D01*
X0028335Y0136167D01*
X0026167Y0138335D01*
X0023333Y0139509D01*
X0020267Y0139509D01*
X0017433Y0138335D01*
X0015265Y0136167D01*
X0014091Y0133333D01*
X0014091Y0130267D01*
X0015265Y0127433D01*
X0015031Y0127999D02*
X0008800Y0127999D01*
X0008800Y0129597D02*
X0014369Y0129597D01*
X0014091Y0131196D02*
X0008800Y0131196D01*
X0008800Y0132794D02*
X0014091Y0132794D01*
X0014530Y0134393D02*
X0008800Y0134393D01*
X0008800Y0135991D02*
X0015192Y0135991D01*
X0016688Y0137590D02*
X0008800Y0137590D01*
X0008800Y0139188D02*
X0019493Y0139188D01*
X0024107Y0139188D02*
X0205229Y0139188D01*
X0203630Y0137590D02*
X0026912Y0137590D01*
X0028408Y0135991D02*
X0202032Y0135991D01*
X0200433Y0134393D02*
X0029070Y0134393D01*
X0029509Y0132794D02*
X0198835Y0132794D01*
X0196800Y0126800D02*
X0208050Y0138050D01*
X0250954Y0138050D01*
X0257646Y0138050D02*
X0259300Y0138050D01*
X0263050Y0141800D01*
X0246800Y0142385D02*
X0008800Y0142385D01*
X0008800Y0140787D02*
X0207341Y0140787D01*
X0215550Y0131800D02*
X0343454Y0131800D01*
X0348454Y0136800D01*
X0355146Y0136800D02*
X0356800Y0136800D01*
X0361800Y0141800D01*
X0340954Y0109300D02*
X0348454Y0101800D01*
X0355146Y0101800D02*
X0361800Y0101800D01*
X0340954Y0109300D02*
X0191800Y0109300D01*
X0191800Y0104300D02*
X0185550Y0104300D01*
X0179300Y0098050D01*
X0179300Y0092646D01*
X0185146Y0086800D01*
X0178454Y0086800D02*
X0169300Y0086800D01*
X0160454Y0077954D01*
X0156800Y0077954D01*
X0136800Y0077954D01*
X0135646Y0076800D01*
X0131800Y0076800D01*
X0126800Y0071800D01*
X0111800Y0071800D01*
X0086800Y0066800D02*
X0081800Y0066800D01*
X0075184Y0060184D01*
X0075184Y0046800D01*
X0081800Y0036800D02*
X0086800Y0041800D01*
X0086800Y0056800D01*
X0070550Y0059263D02*
X0039263Y0059263D01*
X0040861Y0060861D02*
X0070550Y0060861D01*
X0071210Y0062460D02*
X0041800Y0062460D01*
X0041800Y0064058D02*
X0072808Y0064058D01*
X0074407Y0065657D02*
X0041800Y0065657D01*
X0041800Y0067255D02*
X0075550Y0067255D01*
X0075550Y0068854D02*
X0041800Y0068854D01*
X0041800Y0070452D02*
X0075550Y0070452D01*
X0075550Y0072051D02*
X0041800Y0072051D01*
X0041800Y0073649D02*
X0075550Y0073649D01*
X0075550Y0075248D02*
X0041800Y0075248D01*
X0041800Y0076846D02*
X0075550Y0076846D01*
X0075550Y0078445D02*
X0062195Y0078445D01*
X0063793Y0080043D02*
X0076293Y0080043D01*
X0077892Y0081642D02*
X0065392Y0081642D01*
X0065550Y0083240D02*
X0096990Y0083240D01*
X0098050Y0084839D02*
X0065550Y0084839D01*
X0065550Y0086437D02*
X0098050Y0086437D01*
X0098050Y0088036D02*
X0065550Y0088036D01*
X0065884Y0089634D02*
X0096466Y0089634D01*
X0094867Y0091233D02*
X0067483Y0091233D01*
X0048761Y0084839D02*
X0042339Y0084839D01*
X0041800Y0083240D02*
X0049300Y0083240D01*
X0049300Y0081642D02*
X0041800Y0081642D01*
X0041800Y0080043D02*
X0049807Y0080043D01*
X0051405Y0078445D02*
X0041800Y0078445D01*
X0036800Y0078445D02*
X0029300Y0078445D01*
X0029300Y0080043D02*
X0036800Y0080043D01*
X0036800Y0081642D02*
X0029300Y0081642D01*
X0029300Y0083240D02*
X0036800Y0083240D01*
X0036800Y0084839D02*
X0029300Y0084839D01*
X0029300Y0086437D02*
X0036800Y0086437D01*
X0036800Y0088036D02*
X0029300Y0088036D01*
X0029300Y0089634D02*
X0036800Y0089634D01*
X0036800Y0091233D02*
X0029300Y0091233D01*
X0029300Y0092832D02*
X0037832Y0092832D01*
X0039430Y0094430D02*
X0029300Y0094430D01*
X0029300Y0096029D02*
X0041029Y0096029D01*
X0041800Y0097627D02*
X0029300Y0097627D01*
X0029300Y0099226D02*
X0041800Y0099226D01*
X0041800Y0100824D02*
X0029300Y0100824D01*
X0029300Y0102423D02*
X0041800Y0102423D01*
X0041800Y0104021D02*
X0029300Y0104021D01*
X0025048Y0124802D02*
X0049802Y0124802D01*
X0051400Y0126400D02*
X0027302Y0126400D01*
X0028569Y0127999D02*
X0092999Y0127999D01*
X0094597Y0129597D02*
X0029231Y0129597D01*
X0029509Y0131196D02*
X0096196Y0131196D01*
X0122404Y0131196D02*
X0176196Y0131196D01*
X0174597Y0129597D02*
X0124003Y0129597D01*
X0125601Y0127999D02*
X0172999Y0127999D01*
X0171800Y0126400D02*
X0127200Y0126400D01*
X0128798Y0124802D02*
X0171800Y0124802D01*
X0171800Y0123203D02*
X0130397Y0123203D01*
X0131995Y0121605D02*
X0171800Y0121605D01*
X0171800Y0120006D02*
X0133594Y0120006D01*
X0135192Y0118408D02*
X0171800Y0118408D01*
X0171800Y0116809D02*
X0136791Y0116809D01*
X0138389Y0115211D02*
X0171800Y0115211D01*
X0171800Y0113612D02*
X0139988Y0113612D01*
X0141586Y0112014D02*
X0171800Y0112014D01*
X0171800Y0110415D02*
X0143185Y0110415D01*
X0144783Y0108817D02*
X0171800Y0108817D01*
X0171800Y0107218D02*
X0171110Y0107218D01*
X0166800Y0109300D02*
X0148296Y0109300D01*
X0146800Y0110796D01*
X0157559Y0107218D02*
X0162490Y0107218D01*
X0157754Y0107023D02*
X0157754Y0107023D01*
X0166800Y0109300D02*
X0166800Y0119871D01*
X0167479Y0120550D01*
X0183621Y0120550D02*
X0189300Y0120550D01*
X0191800Y0118050D01*
X0191800Y0116800D01*
X0192804Y0115796D01*
X0206800Y0115796D01*
X0211800Y0126800D02*
X0221800Y0116800D01*
X0256800Y0116800D01*
X0258896Y0101800D02*
X0264300Y0101800D01*
X0252204Y0101800D02*
X0251800Y0101396D01*
X0251800Y0095550D01*
X0258050Y0089300D01*
X0258050Y0074300D01*
X0255550Y0071800D01*
X0246800Y0071800D01*
X0224300Y0094300D01*
X0201800Y0094300D01*
X0196800Y0099300D01*
X0191800Y0099300D01*
X0190550Y0095550D02*
X0184300Y0095550D01*
X0190550Y0095550D02*
X0191800Y0094300D01*
X0191800Y0074300D01*
X0194300Y0074300D01*
X0196800Y0071800D01*
X0203296Y0071800D01*
X0206800Y0068296D01*
X0191800Y0074300D02*
X0184871Y0074300D01*
X0165550Y0090550D02*
X0158050Y0083050D01*
X0151800Y0083050D01*
X0144300Y0090550D01*
X0144300Y0099300D01*
X0151800Y0099300D01*
X0156800Y0094300D01*
X0170550Y0094300D01*
X0171800Y0095550D01*
X0171800Y0097072D01*
X0172000Y0097272D01*
X0172000Y0101328D01*
X0171800Y0101528D01*
X0171800Y0101800D01*
X0173050Y0103050D01*
X0176800Y0103050D01*
X0176800Y0099331D01*
X0176500Y0098607D01*
X0176500Y0094000D01*
X0173050Y0090550D01*
X0165550Y0090550D01*
X0164634Y0089634D02*
X0145216Y0089634D01*
X0144300Y0091233D02*
X0173733Y0091233D01*
X0175332Y0092832D02*
X0144300Y0092832D01*
X0144300Y0094430D02*
X0156670Y0094430D01*
X0155071Y0096029D02*
X0144300Y0096029D01*
X0144300Y0097627D02*
X0153473Y0097627D01*
X0151874Y0099226D02*
X0144300Y0099226D01*
X0146800Y0097804D02*
X0150304Y0094300D01*
X0166800Y0094300D01*
X0170680Y0094430D02*
X0176500Y0094430D01*
X0176500Y0096029D02*
X0171800Y0096029D01*
X0172000Y0097627D02*
X0176500Y0097627D01*
X0176756Y0099226D02*
X0172000Y0099226D01*
X0172000Y0100824D02*
X0176800Y0100824D01*
X0176800Y0102423D02*
X0172423Y0102423D01*
X0191800Y0104300D02*
X0205304Y0104300D01*
X0206800Y0102804D01*
X0225796Y0102804D01*
X0251800Y0076800D01*
X0246800Y0066800D02*
X0339704Y0066800D01*
X0349704Y0056800D01*
X0356396Y0056800D02*
X0356800Y0056800D01*
X0361175Y0061175D01*
X0340731Y0052869D02*
X0282869Y0052869D01*
X0284467Y0054467D02*
X0339133Y0054467D01*
X0337534Y0056066D02*
X0286066Y0056066D01*
X0281270Y0051270D02*
X0342330Y0051270D01*
X0343928Y0049672D02*
X0279672Y0049672D01*
X0278073Y0048073D02*
X0345527Y0048073D01*
X0347125Y0046475D02*
X0276475Y0046475D01*
X0274876Y0044876D02*
X0348724Y0044876D01*
X0350322Y0043278D02*
X0273278Y0043278D01*
X0271679Y0041679D02*
X0416800Y0041679D01*
X0416800Y0040081D02*
X0270081Y0040081D01*
X0268482Y0038482D02*
X0416800Y0038482D01*
X0416800Y0036884D02*
X0266884Y0036884D01*
X0265285Y0035285D02*
X0416800Y0035285D01*
X0416800Y0033687D02*
X0263687Y0033687D01*
X0262088Y0032088D02*
X0416800Y0032088D01*
X0264300Y0061800D02*
X0258896Y0061800D01*
X0252204Y0061800D02*
X0237204Y0046800D01*
X0201800Y0046800D01*
X0196800Y0051800D01*
X0191800Y0051800D01*
X0186800Y0056800D02*
X0185146Y0055146D01*
X0185146Y0036800D01*
X0178454Y0036800D02*
X0177300Y0035646D01*
X0178454Y0036800D02*
X0177300Y0037954D01*
X0136800Y0037954D01*
X0126800Y0037954D01*
X0125646Y0036800D01*
X0106800Y0036800D01*
X0126800Y0045646D02*
X0126800Y0051800D01*
X0134300Y0050550D02*
X0136700Y0052950D01*
X0156900Y0052950D01*
X0161800Y0048050D01*
X0178050Y0048050D01*
X0179300Y0046800D01*
X0179300Y0043050D01*
X0178050Y0041800D01*
X0175550Y0041800D01*
X0173457Y0040754D01*
X0145346Y0040754D01*
X0143050Y0043050D01*
X0136800Y0043050D01*
X0134300Y0045550D01*
X0134300Y0050550D01*
X0134300Y0049672D02*
X0160178Y0049672D01*
X0158580Y0051270D02*
X0135020Y0051270D01*
X0136619Y0052869D02*
X0156981Y0052869D01*
X0151800Y0050304D02*
X0155304Y0046800D01*
X0166800Y0046800D01*
X0161777Y0048073D02*
X0134300Y0048073D01*
X0134300Y0046475D02*
X0179300Y0046475D01*
X0179300Y0044876D02*
X0134974Y0044876D01*
X0136800Y0045646D02*
X0140454Y0049300D01*
X0143050Y0049300D01*
X0136572Y0043278D02*
X0179300Y0043278D01*
X0175308Y0041679D02*
X0144421Y0041679D01*
X0186800Y0056800D02*
X0191800Y0056800D01*
X0205304Y0056800D01*
X0206800Y0055304D01*
X0214054Y0055304D01*
X0214300Y0055550D01*
X0191800Y0061800D02*
X0241800Y0061800D01*
X0246800Y0066800D01*
X0191800Y0046800D02*
X0191800Y0041800D01*
X0194300Y0039300D01*
X0214300Y0036800D02*
X0256800Y0036800D01*
X0158240Y0083240D02*
X0151610Y0083240D01*
X0150011Y0084839D02*
X0159839Y0084839D01*
X0161437Y0086437D02*
X0148413Y0086437D01*
X0146814Y0088036D02*
X0163036Y0088036D01*
X0138050Y0086896D02*
X0136800Y0085646D01*
X0135646Y0086800D01*
X0126800Y0086800D01*
X0121800Y0081800D01*
X0138050Y0086896D02*
X0138050Y0099300D01*
X0206800Y0126800D02*
X0211800Y0126800D01*
X0246800Y0143984D02*
X0008800Y0143984D01*
X0008800Y0145582D02*
X0246800Y0145582D01*
X0036800Y0076846D02*
X0029300Y0076846D01*
X0029300Y0075248D02*
X0036800Y0075248D01*
X0036800Y0073649D02*
X0029300Y0073649D01*
X0029300Y0072051D02*
X0036800Y0072051D01*
X0036800Y0070452D02*
X0029300Y0070452D01*
X0029300Y0068854D02*
X0036800Y0068854D01*
X0036800Y0067255D02*
X0029300Y0067255D01*
X0030443Y0065657D02*
X0035657Y0065657D01*
X0046704Y0061704D02*
X0051800Y0066800D01*
X0046704Y0061704D02*
X0046704Y0036800D01*
X0075184Y0036800D02*
X0081800Y0036800D01*
X0070164Y0057664D02*
X0037664Y0057664D01*
X0015777Y0041679D02*
X0008800Y0041679D01*
X0008800Y0040081D02*
X0014815Y0040081D01*
X0014153Y0038482D02*
X0008800Y0038482D01*
X0008800Y0036884D02*
X0014091Y0036884D01*
X0014091Y0035285D02*
X0008800Y0035285D01*
X0008800Y0033687D02*
X0014746Y0033687D01*
X0015610Y0032088D02*
X0008800Y0032088D01*
X0008800Y0030490D02*
X0017209Y0030490D01*
D23*
X0051800Y0066800D03*
X0121800Y0081800D03*
X0154300Y0095550D03*
X0138050Y0099300D03*
X0184300Y0095550D03*
X0191800Y0116800D03*
X0196800Y0126800D03*
X0206800Y0126800D03*
X0215550Y0131800D03*
X0256800Y0116800D03*
X0264300Y0101800D03*
X0251800Y0076800D03*
X0264300Y0061800D03*
X0214300Y0055550D03*
X0196800Y0071800D03*
X0161800Y0066800D03*
X0126800Y0051800D03*
X0194300Y0039300D03*
X0214300Y0036800D03*
X0256800Y0036800D03*
X0361175Y0061175D03*
X0361800Y0101800D03*
X0361800Y0141800D03*
X0263050Y0141800D03*
X0061800Y0095550D03*
D24*
X0019800Y0101800D02*
X0019800Y0066800D01*
D25*
X0046704Y0046800D02*
X0046704Y0036800D01*
X0054396Y0036800D02*
X0065916Y0036800D01*
X0065916Y0046800D02*
X0054396Y0046800D01*
X0351800Y0047290D02*
X0416800Y0047290D01*
X0416800Y0043291D02*
X0351800Y0043291D01*
X0351800Y0039293D02*
X0416800Y0039293D01*
X0416800Y0035294D02*
X0351800Y0035294D01*
X0351800Y0031296D02*
X0416800Y0031296D01*
X0416800Y0027297D02*
X0351800Y0027297D01*
X0351800Y0023299D02*
X0416800Y0023299D01*
X0416800Y0022500D02*
X0351800Y0022500D01*
X0351800Y0051435D01*
X0352309Y0051435D01*
X0353050Y0051742D01*
X0353791Y0051435D01*
X0359001Y0051435D01*
X0360178Y0051922D01*
X0361078Y0052822D01*
X0361565Y0053998D01*
X0361565Y0055475D01*
X0362309Y0055475D01*
X0364404Y0056343D01*
X0366007Y0057946D01*
X0366875Y0060041D01*
X0366875Y0062309D01*
X0366007Y0064404D01*
X0364404Y0066007D01*
X0362309Y0066875D01*
X0360041Y0066875D01*
X0357946Y0066007D01*
X0356343Y0064404D01*
X0355475Y0062309D01*
X0355475Y0062165D01*
X0353791Y0062165D01*
X0353050Y0061858D01*
X0352309Y0062165D01*
X0351800Y0062165D01*
X0351800Y0096742D01*
X0352541Y0096435D01*
X0357751Y0096435D01*
X0358805Y0096871D01*
X0360666Y0096100D01*
X0362934Y0096100D01*
X0365029Y0096968D01*
X0366632Y0098571D01*
X0367500Y0100666D01*
X0367500Y0102934D01*
X0366632Y0105029D01*
X0365029Y0106632D01*
X0362934Y0107500D01*
X0360666Y0107500D01*
X0358805Y0106729D01*
X0357751Y0107165D01*
X0352541Y0107165D01*
X0351800Y0106858D01*
X0351800Y0121800D01*
X0416800Y0121800D01*
X0416800Y0022500D01*
X0416800Y0051288D02*
X0351800Y0051288D01*
X0361565Y0055287D02*
X0416800Y0055287D01*
X0416800Y0059285D02*
X0366562Y0059285D01*
X0366471Y0063284D02*
X0416800Y0063284D01*
X0416800Y0067282D02*
X0351800Y0067282D01*
X0351800Y0071281D02*
X0416800Y0071281D01*
X0416800Y0075279D02*
X0351800Y0075279D01*
X0351800Y0079278D02*
X0416800Y0079278D01*
X0416800Y0083276D02*
X0351800Y0083276D01*
X0351800Y0087275D02*
X0416800Y0087275D01*
X0416800Y0091273D02*
X0351800Y0091273D01*
X0351800Y0095272D02*
X0416800Y0095272D01*
X0416800Y0099270D02*
X0366922Y0099270D01*
X0367361Y0103269D02*
X0416800Y0103269D01*
X0416800Y0107267D02*
X0363496Y0107267D01*
X0360104Y0107267D02*
X0351800Y0107267D01*
X0351800Y0111266D02*
X0416800Y0111266D01*
X0416800Y0115264D02*
X0351800Y0115264D01*
X0351800Y0119263D02*
X0416800Y0119263D01*
X0355879Y0063284D02*
X0351800Y0063284D01*
D26*
X0168729Y0073729D02*
X0161800Y0066800D01*
X0166800Y0061800D02*
X0166800Y0072371D01*
X0168729Y0074300D01*
X0168729Y0073729D01*
X0153296Y0061800D02*
X0151800Y0063296D01*
X0153296Y0061800D02*
X0166800Y0061800D01*
X0147804Y0096800D02*
X0146800Y0097804D01*
X0051800Y0066800D02*
X0046800Y0071800D01*
X0046800Y0082954D01*
D27*
X0034300Y0084300D03*
X0020550Y0081800D03*
X0015550Y0086800D03*
X0020550Y0091800D03*
X0013050Y0094300D03*
X0034300Y0091800D03*
X0039300Y0104300D03*
X0034300Y0111800D03*
X0031800Y0119300D03*
X0041800Y0121800D03*
X0036800Y0126800D03*
X0051800Y0129300D03*
X0044300Y0131800D03*
X0051800Y0135550D03*
X0059300Y0131800D03*
X0069300Y0131800D03*
X0079300Y0129300D03*
X0089300Y0131800D03*
X0099300Y0134300D03*
X0106800Y0139300D03*
X0114300Y0134300D03*
X0121800Y0139300D03*
X0131800Y0134300D03*
X0139300Y0139300D03*
X0146800Y0134300D03*
X0154300Y0139300D03*
X0161800Y0134300D03*
X0169300Y0139300D03*
X0176800Y0134300D03*
X0184300Y0139300D03*
X0191800Y0134300D03*
X0199300Y0139300D03*
X0174300Y0101800D03*
X0174300Y0096800D03*
X0071800Y0076800D03*
X0065550Y0074300D03*
X0056800Y0071800D03*
X0046800Y0071800D03*
X0034300Y0074300D03*
X0020550Y0073050D03*
X0014300Y0076800D03*
X0014300Y0061800D03*
X0020550Y0058050D03*
X0014300Y0054300D03*
X0021800Y0051800D03*
X0030550Y0053050D03*
X0035550Y0048050D03*
X0014300Y0046800D03*
X0036800Y0038050D03*
X0035550Y0028050D03*
X0045550Y0028050D03*
X0054300Y0026800D03*
X0064300Y0026800D03*
X0074300Y0029300D03*
X0081800Y0026800D03*
X0089300Y0029300D03*
X0096800Y0026800D03*
X0104300Y0029300D03*
X0111800Y0026800D03*
X0119300Y0029300D03*
X0126800Y0026800D03*
X0134300Y0029300D03*
X0141800Y0026800D03*
X0149300Y0029300D03*
X0156800Y0026800D03*
X0164300Y0029300D03*
X0171800Y0026800D03*
X0179300Y0029300D03*
X0186800Y0026800D03*
X0194300Y0029300D03*
X0201800Y0026800D03*
X0209300Y0029300D03*
X0216800Y0026800D03*
X0224300Y0029300D03*
X0231800Y0026800D03*
X0239300Y0029300D03*
X0245550Y0026800D03*
X0178050Y0044300D03*
X0168050Y0044300D03*
X0158050Y0044300D03*
X0148050Y0044300D03*
X0143050Y0049300D03*
X0068050Y0063050D03*
X0059300Y0059300D03*
X0044300Y0055550D03*
X0013050Y0104300D03*
X0036800Y0136800D03*
X0031800Y0141800D03*
X0044300Y0141800D03*
X0056800Y0141800D03*
X0064300Y0136800D03*
X0071800Y0139300D03*
X0081800Y0136800D03*
X0089300Y0139300D03*
X0353050Y0109300D03*
X0360550Y0109300D03*
X0368050Y0111800D03*
X0379300Y0111800D03*
X0373050Y0106800D03*
X0385550Y0106800D03*
X0398050Y0106800D03*
X0390550Y0111800D03*
X0400550Y0114300D03*
X0408050Y0116800D03*
X0415550Y0111800D03*
X0408050Y0109300D03*
X0415550Y0104300D03*
X0363050Y0116800D03*
X0355550Y0116800D03*
X0355550Y0076800D03*
X0363050Y0076800D03*
X0370550Y0071800D03*
X0363050Y0069300D03*
X0355550Y0069300D03*
X0375550Y0066800D03*
X0380550Y0071800D03*
X0390550Y0071800D03*
X0400550Y0071800D03*
X0410550Y0071800D03*
X0413050Y0066800D03*
X0405550Y0066800D03*
X0395550Y0066800D03*
X0385550Y0066800D03*
X0405550Y0076800D03*
X0413050Y0076800D03*
X0413050Y0036800D03*
X0403050Y0036800D03*
X0405550Y0031800D03*
X0398050Y0031800D03*
X0388050Y0031800D03*
X0375550Y0031800D03*
X0363050Y0031800D03*
X0355550Y0031800D03*
X0355550Y0036800D03*
X0363050Y0036800D03*
X0360550Y0026800D03*
X0350550Y0026800D03*
X0370550Y0026800D03*
X0380550Y0026800D03*
X0393050Y0026800D03*
X0403050Y0026800D03*
X0413050Y0029300D03*
D28*
X0166800Y0051800D02*
X0163050Y0051800D01*
X0159300Y0055550D01*
X0121800Y0055550D01*
X0113050Y0046800D01*
X0106800Y0046800D01*
X0106800Y0056800D02*
X0108050Y0058050D01*
X0160550Y0058050D01*
X0161800Y0056800D01*
X0166800Y0056800D01*
X0111800Y0071800D02*
X0106800Y0071800D01*
X0106800Y0081800D02*
X0111800Y0081800D01*
X0133050Y0103050D01*
X0154300Y0103050D01*
X0158050Y0099300D01*
X0166800Y0099300D01*
X0166800Y0104300D02*
X0156800Y0104300D01*
X0155550Y0105550D01*
X0130550Y0105550D01*
X0116800Y0091800D01*
X0106800Y0091800D01*
X0061800Y0095550D02*
X0061434Y0095184D01*
X0056800Y0095184D01*
X0050550Y0090550D02*
X0046896Y0090550D01*
X0046800Y0090646D01*
X0050550Y0090550D02*
X0055184Y0085916D01*
X0056800Y0085916D01*
D29*
X0033800Y0101800D02*
X0033800Y0066800D01*
M02*
