%
M48
M72
T01C0.02362
T02C0.03200
T03C0.03937
T04C0.04000
T05C0.11417
%
T01
X54300Y26800
X45550Y28050
X35550Y28050
X36800Y38050
X14300Y46800
X21800Y51800
X14300Y54300
X20550Y58050
X14300Y61800
X30550Y53050
X35550Y48050
X44300Y55550
X59300Y59300
X68050Y63050
X51800Y66800
X46800Y71800
X56800Y71800
X65550Y74300
X71800Y76800
X34300Y74300
X20550Y73050
X14300Y76800
X20550Y81800
X15550Y86800
X20550Y91800
X13050Y94300
X34300Y91800
X34300Y84300
X61800Y95550
X39300Y104300
X34300Y111800
X31800Y119300
X41800Y121800
X36800Y126800
X51800Y129300
X44300Y131800
X51800Y135550
X59300Y131800
X69300Y131800
X79300Y129300
X89300Y131800
X99300Y134300
X106800Y139300
X114300Y134300
X121800Y139300
X131800Y134300
X139300Y139300
X146800Y134300
X154300Y139300
X161800Y134300
X169300Y139300
X176800Y134300
X184300Y139300
X191800Y134300
X199300Y139300
X215550Y131800
X206800Y126800
X196800Y126800
X191800Y116800
X174300Y101800
X174300Y96800
X184300Y95550
X154300Y95550
X138050Y99300
X121800Y81800
X161800Y66800
X196800Y71800
X214300Y55550
X178050Y44300
X168050Y44300
X158050Y44300
X148050Y44300
X143050Y49300
X126800Y51800
X119300Y29300
X111800Y26800
X104300Y29300
X96800Y26800
X89300Y29300
X81800Y26800
X74300Y29300
X64300Y26800
X126800Y26800
X134300Y29300
X141800Y26800
X149300Y29300
X156800Y26800
X164300Y29300
X171800Y26800
X179300Y29300
X186800Y26800
X194300Y29300
X201800Y26800
X209300Y29300
X216800Y26800
X224300Y29300
X231800Y26800
X239300Y29300
X245550Y26800
X256800Y36800
X214300Y36800
X194300Y39300
X264300Y61800
X251800Y76800
X264300Y101800
X256800Y116800
X263050Y141800
X355550Y116800
X363050Y116800
X368050Y111800
X360550Y109300
X353050Y109300
X361800Y101800
X373050Y106800
X379300Y111800
X385550Y106800
X398050Y106800
X390550Y111800
X400550Y114300
X408050Y116800
X415550Y111800
X408050Y109300
X415550Y104300
X413050Y76800
X405550Y76800
X400550Y71800
X390550Y71800
X380550Y71800
X375550Y66800
X363050Y69300
X355550Y69300
X370550Y71800
X363050Y76800
X355550Y76800
X385550Y66800
X395550Y66800
X405550Y66800
X413050Y66800
X410550Y71800
X361175Y61175
X363050Y36800
X355550Y36800
X355550Y31800
X363050Y31800
X375550Y31800
X388050Y31800
X398050Y31800
X405550Y31800
X413050Y29300
X403050Y26800
X393050Y26800
X380550Y26800
X370550Y26800
X360550Y26800
X350550Y26800
X403050Y36800
X413050Y36800
X361800Y141800
X89300Y139300
X81800Y136800
X71800Y139300
X64300Y136800
X56800Y141800
X44300Y141800
X31800Y141800
X36800Y136800
X13050Y104300
T02
X19800Y101800
X33800Y101800
X33800Y66800
X19800Y66800
T03
X106800Y71800
X106800Y81800
X106800Y91800
X106800Y106800
X106800Y116800
X106800Y126800
X106800Y56800
X106800Y46800
X106800Y36800
T04
X86800Y56800
X86800Y66800
X86800Y76800
X86800Y86800
X86800Y96800
X86800Y106800
T05
X21800Y131800
X21800Y36800
X436800Y36800
X436800Y131800
M30
