G75*
%MOIN*%
%OFA0B0*%
%FSLAX25Y25*%
%IPPOS*%
%LPD*%
%AMOC8*
5,1,8,0,0,1.08239X$1,22.5*
%
%ADD10C,0.07500*%
%ADD11OC8,0.06300*%
%ADD12C,0.06300*%
%ADD13R,0.05512X0.04331*%
%ADD14R,0.06299X0.07480*%
%ADD15R,0.09449X0.05906*%
%ADD16R,0.07087X0.06693*%
%ADD17R,0.24409X0.21260*%
%ADD18R,0.06299X0.03937*%
%ADD19R,0.06400X0.02400*%
%ADD20R,0.21260X0.24409*%
%ADD21R,0.03937X0.06299*%
%ADD22R,0.05906X0.05118*%
%ADD23R,0.03937X0.04331*%
%ADD24R,0.05118X0.05906*%
%ADD25C,0.05937*%
%ADD26C,0.06000*%
%ADD27C,0.02400*%
%ADD28C,0.05000*%
%ADD29C,0.01600*%
%ADD30C,0.10000*%
%ADD31C,0.04000*%
%ADD32C,0.01200*%
%ADD33C,0.15000*%
%ADD34C,0.03962*%
D10*
X0047050Y0035550D02*
X0056550Y0035550D01*
X0056550Y0028050D01*
X0047050Y0028050D01*
X0047050Y0035550D01*
X0047050Y0035549D02*
X0056550Y0035549D01*
X0056550Y0139300D02*
X0047050Y0139300D01*
X0056550Y0139300D02*
X0056550Y0131800D01*
X0047050Y0131800D01*
X0047050Y0139300D01*
X0047050Y0139299D02*
X0056550Y0139299D01*
X0432050Y0103050D02*
X0441550Y0103050D01*
X0432050Y0103050D02*
X0432050Y0110550D01*
X0441550Y0110550D01*
X0441550Y0103050D01*
X0441550Y0110549D02*
X0432050Y0110549D01*
X0432050Y0080550D02*
X0441550Y0080550D01*
X0432050Y0080550D02*
X0432050Y0088050D01*
X0441550Y0088050D01*
X0441550Y0080550D01*
X0441550Y0088049D02*
X0432050Y0088049D01*
X0432050Y0058050D02*
X0441550Y0058050D01*
X0432050Y0058050D02*
X0432050Y0065550D01*
X0441550Y0065550D01*
X0441550Y0058050D01*
X0441550Y0065549D02*
X0432050Y0065549D01*
D11*
X0019800Y0066800D03*
X0019800Y0101800D03*
D12*
X0033800Y0101800D03*
X0033800Y0066800D03*
D13*
X0054300Y0102863D03*
X0054300Y0110737D03*
D14*
X0146800Y0093296D03*
X0146800Y0080304D03*
X0206800Y0075304D03*
X0206800Y0088296D03*
D15*
X0071800Y0090855D03*
X0071800Y0072745D03*
D16*
X0171229Y0071800D03*
X0187371Y0071800D03*
D17*
X0231957Y0086800D03*
X0281957Y0086800D03*
X0331957Y0086800D03*
X0381957Y0086800D03*
X0381957Y0046800D03*
X0331957Y0046800D03*
X0281957Y0046800D03*
X0231957Y0046800D03*
X0231957Y0126800D03*
X0281957Y0126800D03*
X0331957Y0126800D03*
X0381957Y0126800D03*
D18*
X0360698Y0117824D03*
X0360698Y0135776D03*
X0410698Y0135776D03*
X0410698Y0117824D03*
X0410698Y0095776D03*
X0410698Y0077824D03*
X0360698Y0077824D03*
X0360698Y0095776D03*
X0310698Y0095776D03*
X0310698Y0077824D03*
X0260698Y0077824D03*
X0260698Y0095776D03*
X0260698Y0117824D03*
X0260698Y0135776D03*
X0310698Y0135776D03*
X0310698Y0117824D03*
X0310698Y0055776D03*
X0360698Y0055776D03*
X0410698Y0055776D03*
X0410698Y0037824D03*
X0360698Y0037824D03*
X0310698Y0037824D03*
X0260698Y0037824D03*
X0260698Y0055776D03*
D19*
X0191800Y0081800D03*
X0191800Y0086800D03*
X0191800Y0091800D03*
X0191800Y0096800D03*
X0166800Y0096800D03*
X0166800Y0091800D03*
X0166800Y0086800D03*
X0166800Y0081800D03*
D20*
X0051800Y0061957D03*
D21*
X0042824Y0090698D03*
X0060776Y0090698D03*
D22*
X0066800Y0102954D03*
X0066800Y0110646D03*
X0146800Y0107954D03*
X0158050Y0107954D03*
X0158050Y0115646D03*
X0146800Y0115646D03*
D23*
X0178454Y0106800D03*
X0185146Y0106800D03*
D24*
X0055646Y0119300D03*
X0047954Y0119300D03*
D25*
X0103831Y0116800D02*
X0109769Y0116800D01*
X0109769Y0106800D02*
X0103831Y0106800D01*
X0103831Y0091800D02*
X0109769Y0091800D01*
X0109769Y0081800D02*
X0103831Y0081800D01*
X0103831Y0071800D02*
X0109769Y0071800D01*
X0109769Y0056800D02*
X0103831Y0056800D01*
X0103831Y0046800D02*
X0109769Y0046800D01*
X0109769Y0036800D02*
X0103831Y0036800D01*
X0103831Y0126800D02*
X0109769Y0126800D01*
D26*
X0089800Y0106800D02*
X0083800Y0106800D01*
X0083800Y0096800D02*
X0089800Y0096800D01*
X0089800Y0086800D02*
X0083800Y0086800D01*
X0083800Y0076800D02*
X0089800Y0076800D01*
X0089800Y0066800D02*
X0083800Y0066800D01*
X0083800Y0056800D02*
X0089800Y0056800D01*
D27*
X0054300Y0069300D02*
X0051800Y0066800D01*
X0051800Y0061957D01*
X0054300Y0069300D02*
X0054300Y0102863D01*
X0054391Y0102954D01*
X0066800Y0102954D01*
X0066800Y0110646D02*
X0056800Y0110646D01*
X0055646Y0111800D01*
X0055646Y0119300D01*
X0054300Y0110737D02*
X0054391Y0110646D01*
X0056800Y0110646D01*
X0066800Y0110646D02*
X0082954Y0110646D01*
X0086800Y0106800D01*
X0095550Y0101800D02*
X0095550Y0123050D01*
X0091800Y0126800D01*
X0158050Y0115646D02*
X0169607Y0115646D01*
X0178454Y0106800D01*
X0158050Y0107954D02*
X0158050Y0098050D01*
X0156800Y0096800D01*
X0151800Y0096800D01*
X0150304Y0096800D01*
X0146800Y0093296D01*
X0156800Y0096800D02*
X0166800Y0096800D01*
X0205304Y0086800D02*
X0206800Y0088296D01*
X0171229Y0077371D02*
X0166800Y0081800D01*
X0165304Y0080304D01*
X0161800Y0080304D01*
X0161800Y0066800D01*
X0171229Y0071800D02*
X0171229Y0077371D01*
X0161800Y0080304D02*
X0146800Y0080304D01*
X0146800Y0081800D02*
X0131800Y0081800D01*
X0114300Y0099300D01*
X0098050Y0099300D01*
X0095550Y0101800D01*
X0071800Y0090855D02*
X0063050Y0090855D01*
X0060934Y0090855D01*
X0060776Y0090698D01*
X0260698Y0095776D02*
X0260698Y0098198D01*
X0264300Y0101800D01*
X0309300Y0101800D01*
X0311800Y0099300D01*
X0311800Y0096879D01*
X0310698Y0095776D01*
X0286800Y0086800D02*
X0281957Y0086800D01*
X0276800Y0086800D01*
X0264300Y0061800D02*
X0261800Y0061800D01*
X0260698Y0060698D01*
X0260698Y0055776D01*
X0264300Y0061800D02*
X0309300Y0061800D01*
X0311800Y0059300D01*
X0311800Y0056879D01*
X0310698Y0055776D01*
X0359300Y0057174D02*
X0360698Y0055776D01*
X0359300Y0057174D02*
X0359300Y0059300D01*
X0361175Y0061175D01*
X0361800Y0061800D01*
X0366800Y0061800D01*
X0409300Y0061800D01*
X0410698Y0060402D01*
X0410698Y0055776D01*
X0410698Y0095776D02*
X0410698Y0100402D01*
X0409300Y0101800D01*
X0361800Y0101800D01*
X0359300Y0099300D01*
X0359300Y0097174D01*
X0360698Y0095776D01*
X0360698Y0135776D02*
X0360698Y0140698D01*
X0361800Y0141800D01*
X0409300Y0141800D01*
X0411800Y0139300D01*
X0411800Y0136879D01*
X0410698Y0135776D01*
X0311800Y0136879D02*
X0310698Y0135776D01*
X0311800Y0136879D02*
X0311800Y0139300D01*
X0309300Y0141800D01*
X0263050Y0141800D01*
X0261800Y0141800D01*
X0260698Y0140698D01*
X0260698Y0135776D01*
D28*
X0263050Y0141800D03*
X0215550Y0131800D03*
X0206800Y0126800D03*
X0196800Y0126800D03*
X0191800Y0116800D03*
X0138050Y0099300D03*
X0154300Y0095550D03*
X0184300Y0095550D03*
X0121800Y0081800D03*
X0161800Y0066800D03*
X0196800Y0071800D03*
X0214300Y0055550D03*
X0194300Y0039300D03*
X0214300Y0036800D03*
X0256800Y0036800D03*
X0264300Y0061800D03*
X0251800Y0076800D03*
X0264300Y0101800D03*
X0256800Y0116800D03*
X0361800Y0101800D03*
X0361800Y0141800D03*
X0361175Y0061175D03*
X0126800Y0051800D03*
X0051800Y0066800D03*
X0061800Y0095550D03*
D29*
X0008800Y0111800D02*
X0008800Y0021300D01*
X0416800Y0021300D01*
X0416800Y0039800D01*
X0396162Y0039800D01*
X0396162Y0035342D01*
X0394991Y0034170D01*
X0368924Y0034170D01*
X0367753Y0035342D01*
X0367753Y0039800D01*
X0351800Y0039800D01*
X0351800Y0031800D01*
X0346900Y0031846D01*
X0346900Y0028783D01*
X0346504Y0027827D01*
X0344004Y0025327D01*
X0343273Y0024596D01*
X0342317Y0024200D01*
X0251283Y0024200D01*
X0250327Y0024596D01*
X0247827Y0027096D01*
X0247096Y0027827D01*
X0246700Y0028783D01*
X0246700Y0032782D01*
X0218050Y0033050D01*
X0217482Y0033618D01*
X0216849Y0032985D01*
X0215195Y0032300D01*
X0213405Y0032300D01*
X0211751Y0032985D01*
X0210485Y0034251D01*
X0209800Y0035905D01*
X0209800Y0037695D01*
X0210485Y0039349D01*
X0211500Y0040364D01*
X0211500Y0051986D01*
X0210485Y0053001D01*
X0209800Y0054655D01*
X0209800Y0056445D01*
X0210485Y0058099D01*
X0211751Y0059365D01*
X0213405Y0060050D01*
X0214300Y0060050D01*
X0214300Y0074300D01*
X0211950Y0076650D01*
X0211950Y0070735D01*
X0210778Y0069564D01*
X0202822Y0069564D01*
X0201650Y0070735D01*
X0201650Y0072504D01*
X0201464Y0072504D01*
X0201300Y0072340D01*
X0201300Y0070905D01*
X0200615Y0069251D01*
X0199349Y0067985D01*
X0197695Y0067300D01*
X0197100Y0067300D01*
X0197100Y0042864D01*
X0198115Y0041849D01*
X0198800Y0040195D01*
X0198800Y0038405D01*
X0198115Y0036751D01*
X0196849Y0035485D01*
X0195195Y0034800D01*
X0193405Y0034800D01*
X0191751Y0035485D01*
X0190485Y0036751D01*
X0189800Y0038405D01*
X0189800Y0040195D01*
X0190485Y0041849D01*
X0191500Y0042864D01*
X0191500Y0066454D01*
X0182999Y0066454D01*
X0181828Y0067625D01*
X0181828Y0075975D01*
X0182999Y0077146D01*
X0186454Y0077146D01*
X0181800Y0081800D01*
X0181800Y0085340D01*
X0176926Y0090214D01*
X0176500Y0091243D01*
X0176500Y0098607D01*
X0176926Y0099636D01*
X0177714Y0100424D01*
X0179925Y0102635D01*
X0175657Y0102635D01*
X0174485Y0103806D01*
X0174485Y0106243D01*
X0168928Y0111800D01*
X0162544Y0111800D01*
X0161831Y0111087D01*
X0154269Y0111087D01*
X0153556Y0111800D01*
X0151294Y0111800D01*
X0151294Y0111800D01*
X0151753Y0111341D01*
X0151753Y0104566D01*
X0150581Y0103394D01*
X0143019Y0103394D01*
X0142687Y0103727D01*
X0141337Y0102377D01*
X0141865Y0101849D01*
X0142550Y0100195D01*
X0142550Y0098405D01*
X0141865Y0096751D01*
X0140599Y0095485D01*
X0138945Y0094800D01*
X0138727Y0094800D01*
X0142877Y0090650D01*
X0151973Y0090650D01*
X0155327Y0094004D01*
X0156283Y0094400D01*
X0162172Y0094400D01*
X0162772Y0095000D01*
X0170828Y0095000D01*
X0172000Y0093828D01*
X0172000Y0089772D01*
X0171528Y0089300D01*
X0172000Y0088828D01*
X0172000Y0084772D01*
X0171528Y0084300D01*
X0172000Y0083828D01*
X0172000Y0081125D01*
X0173942Y0079184D01*
X0174429Y0078007D01*
X0174429Y0077146D01*
X0175601Y0077146D01*
X0176772Y0075975D01*
X0176772Y0067625D01*
X0175601Y0066454D01*
X0166857Y0066454D01*
X0166300Y0067011D01*
X0166300Y0065905D01*
X0165615Y0064251D01*
X0164349Y0062985D01*
X0162695Y0062300D01*
X0160905Y0062300D01*
X0159251Y0062985D01*
X0157985Y0064251D01*
X0157300Y0065905D01*
X0157300Y0067695D01*
X0157985Y0069349D01*
X0158600Y0069964D01*
X0158600Y0077104D01*
X0151950Y0077104D01*
X0151950Y0075735D01*
X0150778Y0074564D01*
X0142822Y0074564D01*
X0141650Y0075735D01*
X0141650Y0078600D01*
X0131163Y0078600D01*
X0129987Y0079087D01*
X0126800Y0082275D01*
X0126800Y0071800D01*
X0126280Y0071280D01*
X0129174Y0068386D01*
X0129600Y0067357D01*
X0129600Y0055364D01*
X0130615Y0054349D01*
X0131300Y0052695D01*
X0131300Y0050905D01*
X0130615Y0049251D01*
X0129349Y0047985D01*
X0127695Y0047300D01*
X0125905Y0047300D01*
X0124251Y0047985D01*
X0122985Y0049251D01*
X0122300Y0050905D01*
X0122300Y0052695D01*
X0122985Y0054349D01*
X0124000Y0055364D01*
X0124000Y0061500D01*
X0116800Y0061500D01*
X0116800Y0036800D01*
X0111800Y0031800D01*
X0101800Y0031800D01*
X0096800Y0036800D01*
X0096800Y0046800D01*
X0091800Y0051800D01*
X0081800Y0051800D01*
X0081089Y0052511D01*
X0080968Y0052561D01*
X0079561Y0053968D01*
X0079511Y0054089D01*
X0076800Y0056800D01*
X0076800Y0076800D01*
X0079511Y0079511D01*
X0079561Y0079632D01*
X0080968Y0081039D01*
X0081089Y0081089D01*
X0081800Y0081800D01*
X0091800Y0081800D01*
X0091800Y0091800D01*
X0078524Y0091800D01*
X0078524Y0087074D01*
X0077353Y0085902D01*
X0066247Y0085902D01*
X0065076Y0087074D01*
X0065076Y0087655D01*
X0064745Y0087655D01*
X0064745Y0086720D01*
X0063573Y0085548D01*
X0057979Y0085548D01*
X0056808Y0086720D01*
X0056808Y0094676D01*
X0057300Y0095168D01*
X0057300Y0096445D01*
X0057985Y0098099D01*
X0059251Y0099365D01*
X0060905Y0100050D01*
X0062695Y0100050D01*
X0064349Y0099365D01*
X0065615Y0098099D01*
X0066300Y0096445D01*
X0066300Y0095808D01*
X0071096Y0095808D01*
X0075479Y0100191D01*
X0076800Y0100738D01*
X0076800Y0106800D01*
X0071294Y0106800D01*
X0070581Y0106087D01*
X0063019Y0106087D01*
X0062306Y0106800D01*
X0058113Y0106800D01*
X0057884Y0106572D01*
X0050716Y0106572D01*
X0050487Y0106800D01*
X0046800Y0106800D01*
X0045850Y0105850D01*
X0045850Y0100460D01*
X0049174Y0097136D01*
X0049600Y0096107D01*
X0049600Y0088743D01*
X0049174Y0087714D01*
X0048386Y0086926D01*
X0045886Y0084426D01*
X0044857Y0084000D01*
X0041800Y0084000D01*
X0041800Y0061800D01*
X0038050Y0058050D01*
X0030550Y0058050D01*
X0024300Y0064300D01*
X0024300Y0109300D01*
X0021800Y0111800D01*
X0008800Y0111800D01*
X0008800Y0110415D02*
X0023185Y0110415D01*
X0024300Y0108817D02*
X0008800Y0108817D01*
X0008800Y0107218D02*
X0024300Y0107218D01*
X0024300Y0105620D02*
X0008800Y0105620D01*
X0008800Y0104021D02*
X0024300Y0104021D01*
X0024300Y0102423D02*
X0008800Y0102423D01*
X0008800Y0100824D02*
X0024300Y0100824D01*
X0024300Y0099226D02*
X0008800Y0099226D01*
X0008800Y0097627D02*
X0024300Y0097627D01*
X0024300Y0096029D02*
X0008800Y0096029D01*
X0008800Y0094430D02*
X0024300Y0094430D01*
X0024300Y0092832D02*
X0008800Y0092832D01*
X0008800Y0091233D02*
X0024300Y0091233D01*
X0024300Y0089634D02*
X0008800Y0089634D01*
X0008800Y0088036D02*
X0024300Y0088036D01*
X0024300Y0086437D02*
X0008800Y0086437D01*
X0008800Y0084839D02*
X0024300Y0084839D01*
X0024300Y0083240D02*
X0008800Y0083240D01*
X0008800Y0081642D02*
X0024300Y0081642D01*
X0024300Y0080043D02*
X0008800Y0080043D01*
X0008800Y0078445D02*
X0024300Y0078445D01*
X0024300Y0076846D02*
X0008800Y0076846D01*
X0008800Y0075248D02*
X0024300Y0075248D01*
X0024300Y0073649D02*
X0008800Y0073649D01*
X0008800Y0072051D02*
X0024300Y0072051D01*
X0024300Y0070452D02*
X0008800Y0070452D01*
X0008800Y0068854D02*
X0024300Y0068854D01*
X0024300Y0067255D02*
X0008800Y0067255D01*
X0008800Y0065657D02*
X0024300Y0065657D01*
X0024542Y0064058D02*
X0008800Y0064058D01*
X0008800Y0062460D02*
X0026140Y0062460D01*
X0027739Y0060861D02*
X0008800Y0060861D01*
X0008800Y0059263D02*
X0029337Y0059263D01*
X0039263Y0059263D02*
X0076800Y0059263D01*
X0076800Y0060861D02*
X0040861Y0060861D01*
X0041800Y0062460D02*
X0076800Y0062460D01*
X0076800Y0064058D02*
X0041800Y0064058D01*
X0041800Y0065657D02*
X0076800Y0065657D01*
X0076800Y0067255D02*
X0041800Y0067255D01*
X0041800Y0068854D02*
X0076800Y0068854D01*
X0076800Y0070452D02*
X0041800Y0070452D01*
X0041800Y0072051D02*
X0076800Y0072051D01*
X0076800Y0073649D02*
X0041800Y0073649D01*
X0041800Y0075248D02*
X0076800Y0075248D01*
X0076846Y0076846D02*
X0041800Y0076846D01*
X0041800Y0078445D02*
X0078445Y0078445D01*
X0079972Y0080043D02*
X0041800Y0080043D01*
X0041800Y0081642D02*
X0081642Y0081642D01*
X0091800Y0083240D02*
X0041800Y0083240D01*
X0046299Y0084839D02*
X0091800Y0084839D01*
X0091800Y0086437D02*
X0077888Y0086437D01*
X0078524Y0088036D02*
X0091800Y0088036D01*
X0091800Y0089634D02*
X0078524Y0089634D01*
X0078524Y0091233D02*
X0091800Y0091233D01*
X0086800Y0086800D02*
X0081800Y0086800D01*
X0071800Y0076800D01*
X0071800Y0072745D01*
X0086800Y0076800D02*
X0091800Y0076800D01*
X0096800Y0071800D01*
X0096800Y0066800D01*
X0099300Y0064300D01*
X0126800Y0064300D01*
X0126800Y0066800D01*
X0121800Y0071800D01*
X0121800Y0081800D01*
X0126800Y0081642D02*
X0127433Y0081642D01*
X0126800Y0080043D02*
X0129031Y0080043D01*
X0126800Y0078445D02*
X0141650Y0078445D01*
X0141650Y0076846D02*
X0126800Y0076846D01*
X0126800Y0075248D02*
X0142138Y0075248D01*
X0151462Y0075248D02*
X0158600Y0075248D01*
X0158600Y0076846D02*
X0151950Y0076846D01*
X0146800Y0080304D02*
X0146800Y0081800D01*
X0158600Y0073649D02*
X0126800Y0073649D01*
X0126800Y0072051D02*
X0158600Y0072051D01*
X0158600Y0070452D02*
X0127107Y0070452D01*
X0128706Y0068854D02*
X0157780Y0068854D01*
X0157300Y0067255D02*
X0129600Y0067255D01*
X0129600Y0065657D02*
X0157403Y0065657D01*
X0158178Y0064058D02*
X0129600Y0064058D01*
X0129600Y0062460D02*
X0160519Y0062460D01*
X0163081Y0062460D02*
X0191500Y0062460D01*
X0191500Y0064058D02*
X0165422Y0064058D01*
X0166197Y0065657D02*
X0191500Y0065657D01*
X0197100Y0065657D02*
X0214300Y0065657D01*
X0214300Y0067255D02*
X0197100Y0067255D01*
X0194300Y0069300D02*
X0196800Y0071800D01*
X0200304Y0075304D01*
X0206800Y0075304D01*
X0211950Y0075248D02*
X0213352Y0075248D01*
X0214300Y0073649D02*
X0211950Y0073649D01*
X0211950Y0072051D02*
X0214300Y0072051D01*
X0214300Y0070452D02*
X0211667Y0070452D01*
X0214300Y0068854D02*
X0200218Y0068854D01*
X0201113Y0070452D02*
X0201933Y0070452D01*
X0201650Y0072051D02*
X0201300Y0072051D01*
X0196800Y0071800D02*
X0187371Y0071800D01*
X0181828Y0072051D02*
X0176772Y0072051D01*
X0176772Y0073649D02*
X0181828Y0073649D01*
X0181828Y0075248D02*
X0176772Y0075248D01*
X0175901Y0076846D02*
X0182699Y0076846D01*
X0185155Y0078445D02*
X0174248Y0078445D01*
X0173082Y0080043D02*
X0183557Y0080043D01*
X0181958Y0081642D02*
X0172000Y0081642D01*
X0172000Y0083240D02*
X0181800Y0083240D01*
X0181800Y0084839D02*
X0172000Y0084839D01*
X0172000Y0086437D02*
X0180703Y0086437D01*
X0179104Y0088036D02*
X0172000Y0088036D01*
X0171863Y0089634D02*
X0177506Y0089634D01*
X0176504Y0091233D02*
X0172000Y0091233D01*
X0172000Y0092832D02*
X0176500Y0092832D01*
X0176500Y0094430D02*
X0171398Y0094430D01*
X0176500Y0096029D02*
X0141143Y0096029D01*
X0142228Y0097627D02*
X0176500Y0097627D01*
X0176756Y0099226D02*
X0142550Y0099226D01*
X0142289Y0100824D02*
X0178114Y0100824D01*
X0179713Y0102423D02*
X0141382Y0102423D01*
X0138050Y0103050D02*
X0138050Y0099300D01*
X0138050Y0103050D02*
X0142954Y0107954D01*
X0146800Y0107954D01*
X0151753Y0107218D02*
X0173510Y0107218D01*
X0174485Y0105620D02*
X0151753Y0105620D01*
X0151208Y0104021D02*
X0174485Y0104021D01*
X0177300Y0107954D02*
X0178454Y0106800D01*
X0185146Y0106800D02*
X0185146Y0103896D01*
X0179300Y0098050D01*
X0179300Y0091800D01*
X0184300Y0086800D01*
X0191800Y0086800D01*
X0206800Y0086800D01*
X0206800Y0088296D01*
X0206800Y0126800D01*
X0219357Y0129243D02*
X0221800Y0126800D01*
X0246800Y0126800D01*
X0246800Y0146001D01*
X0041800Y0146001D01*
X0041800Y0126800D01*
X0091800Y0126800D01*
X0096800Y0131800D01*
X0211050Y0131800D01*
X0211050Y0132695D01*
X0211735Y0134349D01*
X0213001Y0135615D01*
X0214655Y0136300D01*
X0216445Y0136300D01*
X0218099Y0135615D01*
X0219365Y0134349D01*
X0220050Y0132695D01*
X0220050Y0130905D01*
X0219365Y0129251D01*
X0219357Y0129243D01*
X0219508Y0129597D02*
X0246800Y0129597D01*
X0246800Y0127999D02*
X0220601Y0127999D01*
X0220050Y0131196D02*
X0246800Y0131196D01*
X0246800Y0132794D02*
X0220009Y0132794D01*
X0219321Y0134393D02*
X0246800Y0134393D01*
X0246800Y0135991D02*
X0217190Y0135991D01*
X0213910Y0135991D02*
X0041800Y0135991D01*
X0041800Y0134393D02*
X0211779Y0134393D01*
X0211091Y0132794D02*
X0041800Y0132794D01*
X0041800Y0131196D02*
X0096196Y0131196D01*
X0094597Y0129597D02*
X0041800Y0129597D01*
X0041800Y0127999D02*
X0092999Y0127999D01*
X0049300Y0127999D02*
X0028569Y0127999D01*
X0028335Y0127433D02*
X0029509Y0130267D01*
X0029509Y0133333D01*
X0028335Y0136167D01*
X0026167Y0138335D01*
X0023333Y0139509D01*
X0020267Y0139509D01*
X0017433Y0138335D01*
X0015265Y0136167D01*
X0014091Y0133333D01*
X0014091Y0130267D01*
X0015265Y0127433D01*
X0017433Y0125265D01*
X0020267Y0124091D01*
X0023333Y0124091D01*
X0026167Y0125265D01*
X0028335Y0127433D01*
X0027302Y0126400D02*
X0049300Y0126400D01*
X0049300Y0124802D02*
X0025048Y0124802D01*
X0018552Y0124802D02*
X0008800Y0124802D01*
X0008800Y0126400D02*
X0016298Y0126400D01*
X0015031Y0127999D02*
X0008800Y0127999D01*
X0008800Y0129597D02*
X0014369Y0129597D01*
X0014091Y0131196D02*
X0008800Y0131196D01*
X0008800Y0132794D02*
X0014091Y0132794D01*
X0014530Y0134393D02*
X0008800Y0134393D01*
X0008800Y0135991D02*
X0015192Y0135991D01*
X0016688Y0137590D02*
X0008800Y0137590D01*
X0008800Y0139188D02*
X0019493Y0139188D01*
X0024107Y0139188D02*
X0049300Y0139188D01*
X0049300Y0137590D02*
X0026912Y0137590D01*
X0028408Y0135991D02*
X0049300Y0135991D01*
X0049300Y0134393D02*
X0029070Y0134393D01*
X0029509Y0132794D02*
X0049300Y0132794D01*
X0049300Y0131196D02*
X0029509Y0131196D01*
X0029231Y0129597D02*
X0049300Y0129597D01*
X0049300Y0123203D02*
X0008800Y0123203D01*
X0008800Y0121800D02*
X0008800Y0146001D01*
X0049300Y0146001D01*
X0049300Y0118050D01*
X0043050Y0111800D01*
X0043050Y0099300D01*
X0046800Y0095550D01*
X0046800Y0089300D01*
X0044300Y0086800D01*
X0038050Y0086800D01*
X0036800Y0085550D01*
X0036800Y0065550D01*
X0035550Y0064300D01*
X0031800Y0064300D01*
X0029300Y0068050D01*
X0029300Y0115550D01*
X0023050Y0121800D01*
X0008800Y0121800D01*
X0023245Y0121605D02*
X0049300Y0121605D01*
X0049300Y0120006D02*
X0024844Y0120006D01*
X0026442Y0118408D02*
X0049300Y0118408D01*
X0048059Y0116809D02*
X0028041Y0116809D01*
X0029300Y0115211D02*
X0046461Y0115211D01*
X0044862Y0113612D02*
X0029300Y0113612D01*
X0029300Y0112014D02*
X0043264Y0112014D01*
X0043050Y0110415D02*
X0029300Y0110415D01*
X0029300Y0108817D02*
X0043050Y0108817D01*
X0043050Y0107218D02*
X0029300Y0107218D01*
X0029300Y0105620D02*
X0043050Y0105620D01*
X0043050Y0104021D02*
X0029300Y0104021D01*
X0029300Y0102423D02*
X0043050Y0102423D01*
X0043050Y0100824D02*
X0029300Y0100824D01*
X0029300Y0099226D02*
X0043124Y0099226D01*
X0044723Y0097627D02*
X0029300Y0097627D01*
X0029300Y0096029D02*
X0046321Y0096029D01*
X0046800Y0094430D02*
X0029300Y0094430D01*
X0029300Y0092832D02*
X0046800Y0092832D01*
X0046800Y0091233D02*
X0029300Y0091233D01*
X0029300Y0089634D02*
X0046800Y0089634D01*
X0045536Y0088036D02*
X0029300Y0088036D01*
X0029300Y0086437D02*
X0037687Y0086437D01*
X0036800Y0084839D02*
X0029300Y0084839D01*
X0029300Y0083240D02*
X0036800Y0083240D01*
X0036800Y0081642D02*
X0029300Y0081642D01*
X0029300Y0080043D02*
X0036800Y0080043D01*
X0036800Y0078445D02*
X0029300Y0078445D01*
X0029300Y0076846D02*
X0036800Y0076846D01*
X0036800Y0075248D02*
X0029300Y0075248D01*
X0029300Y0073649D02*
X0036800Y0073649D01*
X0036800Y0072051D02*
X0029300Y0072051D01*
X0029300Y0070452D02*
X0036800Y0070452D01*
X0036800Y0068854D02*
X0029300Y0068854D01*
X0029830Y0067255D02*
X0036800Y0067255D01*
X0036800Y0065657D02*
X0030895Y0065657D01*
X0008800Y0057664D02*
X0076800Y0057664D01*
X0077534Y0056066D02*
X0008800Y0056066D01*
X0008800Y0054467D02*
X0079133Y0054467D01*
X0080660Y0052869D02*
X0008800Y0052869D01*
X0008800Y0051270D02*
X0092330Y0051270D01*
X0093928Y0049672D02*
X0008800Y0049672D01*
X0008800Y0048073D02*
X0095527Y0048073D01*
X0096800Y0046475D02*
X0008800Y0046475D01*
X0008800Y0044876D02*
X0096800Y0044876D01*
X0096800Y0043278D02*
X0026224Y0043278D01*
X0026167Y0043335D02*
X0023333Y0044509D01*
X0020267Y0044509D01*
X0017433Y0043335D01*
X0015265Y0041167D01*
X0014091Y0038333D01*
X0014091Y0035267D01*
X0015265Y0032433D01*
X0017433Y0030265D01*
X0020267Y0029091D01*
X0023333Y0029091D01*
X0026167Y0030265D01*
X0028335Y0032433D01*
X0029509Y0035267D01*
X0029509Y0038333D01*
X0028335Y0041167D01*
X0026167Y0043335D01*
X0027823Y0041679D02*
X0096800Y0041679D01*
X0096800Y0040081D02*
X0028785Y0040081D01*
X0029447Y0038482D02*
X0096800Y0038482D01*
X0096800Y0036884D02*
X0029509Y0036884D01*
X0029509Y0035285D02*
X0098315Y0035285D01*
X0099913Y0033687D02*
X0028854Y0033687D01*
X0027990Y0032088D02*
X0101512Y0032088D01*
X0112088Y0032088D02*
X0246700Y0032088D01*
X0246700Y0030490D02*
X0026391Y0030490D01*
X0017209Y0030490D02*
X0008800Y0030490D01*
X0008800Y0032088D02*
X0015610Y0032088D01*
X0014746Y0033687D02*
X0008800Y0033687D01*
X0008800Y0035285D02*
X0014091Y0035285D01*
X0014091Y0036884D02*
X0008800Y0036884D01*
X0008800Y0038482D02*
X0014153Y0038482D01*
X0014815Y0040081D02*
X0008800Y0040081D01*
X0008800Y0041679D02*
X0015777Y0041679D01*
X0017376Y0043278D02*
X0008800Y0043278D01*
X0008800Y0028891D02*
X0246700Y0028891D01*
X0247630Y0027293D02*
X0008800Y0027293D01*
X0008800Y0025694D02*
X0249229Y0025694D01*
X0256800Y0036800D02*
X0259674Y0036800D01*
X0260698Y0037824D01*
X0214300Y0036800D02*
X0214300Y0055550D01*
X0210305Y0057664D02*
X0197100Y0057664D01*
X0197100Y0056066D02*
X0209800Y0056066D01*
X0209878Y0054467D02*
X0197100Y0054467D01*
X0197100Y0052869D02*
X0210617Y0052869D01*
X0211500Y0051270D02*
X0197100Y0051270D01*
X0197100Y0049672D02*
X0211500Y0049672D01*
X0211500Y0048073D02*
X0197100Y0048073D01*
X0197100Y0046475D02*
X0211500Y0046475D01*
X0211500Y0044876D02*
X0197100Y0044876D01*
X0197100Y0043278D02*
X0211500Y0043278D01*
X0211500Y0041679D02*
X0198185Y0041679D01*
X0198800Y0040081D02*
X0211217Y0040081D01*
X0210126Y0038482D02*
X0198800Y0038482D01*
X0198170Y0036884D02*
X0209800Y0036884D01*
X0210057Y0035285D02*
X0196366Y0035285D01*
X0192234Y0035285D02*
X0115285Y0035285D01*
X0116800Y0036884D02*
X0190430Y0036884D01*
X0189800Y0038482D02*
X0116800Y0038482D01*
X0116800Y0040081D02*
X0189800Y0040081D01*
X0190415Y0041679D02*
X0116800Y0041679D01*
X0116800Y0043278D02*
X0191500Y0043278D01*
X0191500Y0044876D02*
X0116800Y0044876D01*
X0116800Y0046475D02*
X0191500Y0046475D01*
X0191500Y0048073D02*
X0129437Y0048073D01*
X0130789Y0049672D02*
X0191500Y0049672D01*
X0191500Y0051270D02*
X0131300Y0051270D01*
X0131228Y0052869D02*
X0191500Y0052869D01*
X0191500Y0054467D02*
X0130497Y0054467D01*
X0129600Y0056066D02*
X0191500Y0056066D01*
X0191500Y0057664D02*
X0129600Y0057664D01*
X0129600Y0059263D02*
X0191500Y0059263D01*
X0191500Y0060861D02*
X0129600Y0060861D01*
X0124000Y0060861D02*
X0116800Y0060861D01*
X0116800Y0059263D02*
X0124000Y0059263D01*
X0124000Y0057664D02*
X0116800Y0057664D01*
X0116800Y0056066D02*
X0124000Y0056066D01*
X0123103Y0054467D02*
X0116800Y0054467D01*
X0116800Y0052869D02*
X0122372Y0052869D01*
X0122300Y0051270D02*
X0116800Y0051270D01*
X0116800Y0049672D02*
X0122811Y0049672D01*
X0124163Y0048073D02*
X0116800Y0048073D01*
X0126800Y0051800D02*
X0126800Y0064300D01*
X0176403Y0067255D02*
X0182197Y0067255D01*
X0181828Y0068854D02*
X0176772Y0068854D01*
X0176772Y0070452D02*
X0181828Y0070452D01*
X0194300Y0069300D02*
X0194300Y0039300D01*
X0211049Y0033687D02*
X0113687Y0033687D01*
X0197100Y0059263D02*
X0211649Y0059263D01*
X0214300Y0060861D02*
X0197100Y0060861D01*
X0197100Y0062460D02*
X0214300Y0062460D01*
X0214300Y0064058D02*
X0197100Y0064058D01*
X0191800Y0081800D02*
X0214300Y0081800D01*
X0215550Y0083050D01*
X0215550Y0131800D01*
X0246800Y0137590D02*
X0041800Y0137590D01*
X0041800Y0139188D02*
X0246800Y0139188D01*
X0246800Y0140787D02*
X0041800Y0140787D01*
X0041800Y0142385D02*
X0246800Y0142385D01*
X0246800Y0143984D02*
X0041800Y0143984D01*
X0041800Y0145582D02*
X0246800Y0145582D01*
X0260698Y0117824D02*
X0259674Y0116800D01*
X0256800Y0116800D01*
X0201800Y0096800D02*
X0196800Y0091800D01*
X0191800Y0091800D01*
X0185550Y0096800D02*
X0184300Y0095550D01*
X0185550Y0096800D02*
X0191800Y0096800D01*
X0191800Y0116800D01*
X0171911Y0108817D02*
X0151753Y0108817D01*
X0151753Y0110415D02*
X0170313Y0110415D01*
X0158050Y0115646D02*
X0146800Y0115646D01*
X0151800Y0096800D02*
X0153050Y0096800D01*
X0154300Y0095550D01*
X0154300Y0094300D02*
X0151800Y0096800D01*
X0153050Y0096800D02*
X0154300Y0096800D01*
X0156800Y0094300D01*
X0154300Y0094300D01*
X0154155Y0092832D02*
X0140695Y0092832D01*
X0139097Y0094430D02*
X0162202Y0094430D01*
X0152556Y0091233D02*
X0142294Y0091233D01*
X0076800Y0100824D02*
X0045850Y0100824D01*
X0045850Y0102423D02*
X0076800Y0102423D01*
X0076800Y0104021D02*
X0045850Y0104021D01*
X0045850Y0105620D02*
X0076800Y0105620D01*
X0074514Y0099226D02*
X0064488Y0099226D01*
X0065810Y0097627D02*
X0072915Y0097627D01*
X0071317Y0096029D02*
X0066300Y0096029D01*
X0059112Y0099226D02*
X0047084Y0099226D01*
X0048683Y0097627D02*
X0057790Y0097627D01*
X0057300Y0096029D02*
X0049600Y0096029D01*
X0049600Y0094430D02*
X0056808Y0094430D01*
X0056808Y0092832D02*
X0049600Y0092832D01*
X0049600Y0091233D02*
X0056808Y0091233D01*
X0056808Y0089634D02*
X0049600Y0089634D01*
X0049307Y0088036D02*
X0056808Y0088036D01*
X0057090Y0086437D02*
X0047897Y0086437D01*
X0064463Y0086437D02*
X0065712Y0086437D01*
X0049300Y0140787D02*
X0008800Y0140787D01*
X0008800Y0142385D02*
X0049300Y0142385D01*
X0049300Y0143984D02*
X0008800Y0143984D01*
X0008800Y0145582D02*
X0049300Y0145582D01*
X0251800Y0076800D02*
X0259674Y0076800D01*
X0260698Y0077824D01*
X0351800Y0078445D02*
X0367753Y0078445D01*
X0367753Y0079800D02*
X0367753Y0075342D01*
X0368924Y0074170D01*
X0394991Y0074170D01*
X0396162Y0075342D01*
X0396162Y0079800D01*
X0416800Y0079800D01*
X0416800Y0056699D01*
X0415847Y0055747D01*
X0415847Y0058573D01*
X0414676Y0059745D01*
X0413898Y0059745D01*
X0413898Y0061039D01*
X0413410Y0062215D01*
X0412013Y0063613D01*
X0411113Y0064513D01*
X0409937Y0065000D01*
X0363700Y0065000D01*
X0362070Y0065675D01*
X0360280Y0065675D01*
X0358626Y0064990D01*
X0357360Y0063724D01*
X0356675Y0062070D01*
X0356675Y0061200D01*
X0356587Y0061113D01*
X0356100Y0059937D01*
X0356100Y0059125D01*
X0355548Y0058573D01*
X0355548Y0053800D01*
X0351800Y0053800D01*
X0351800Y0079800D01*
X0367753Y0079800D01*
X0367753Y0076846D02*
X0351800Y0076846D01*
X0351800Y0075248D02*
X0367847Y0075248D01*
X0351800Y0073649D02*
X0416800Y0073649D01*
X0416800Y0072051D02*
X0351800Y0072051D01*
X0351800Y0070452D02*
X0416800Y0070452D01*
X0416800Y0068854D02*
X0351800Y0068854D01*
X0351800Y0067255D02*
X0416800Y0067255D01*
X0416800Y0065657D02*
X0362114Y0065657D01*
X0360236Y0065657D02*
X0351800Y0065657D01*
X0351800Y0064058D02*
X0357694Y0064058D01*
X0356836Y0062460D02*
X0351800Y0062460D01*
X0351800Y0060861D02*
X0356483Y0060861D01*
X0356100Y0059263D02*
X0351800Y0059263D01*
X0351800Y0057664D02*
X0355548Y0057664D01*
X0355548Y0056066D02*
X0351800Y0056066D01*
X0351800Y0054467D02*
X0355548Y0054467D01*
X0361175Y0061175D02*
X0366175Y0061175D01*
X0366800Y0061800D01*
X0396068Y0075248D02*
X0416800Y0075248D01*
X0416800Y0076846D02*
X0396162Y0076846D01*
X0396162Y0078445D02*
X0416800Y0078445D01*
X0416800Y0064058D02*
X0411567Y0064058D01*
X0413166Y0062460D02*
X0416800Y0062460D01*
X0416800Y0060861D02*
X0413898Y0060861D01*
X0415158Y0059263D02*
X0416800Y0059263D01*
X0416800Y0057664D02*
X0415847Y0057664D01*
X0415847Y0056066D02*
X0416166Y0056066D01*
X0416800Y0038482D02*
X0396162Y0038482D01*
X0396162Y0036884D02*
X0416800Y0036884D01*
X0416800Y0035285D02*
X0396106Y0035285D01*
X0416800Y0033687D02*
X0351800Y0033687D01*
X0351800Y0035285D02*
X0367809Y0035285D01*
X0367753Y0036884D02*
X0351800Y0036884D01*
X0351800Y0038482D02*
X0367753Y0038482D01*
X0351800Y0032088D02*
X0416800Y0032088D01*
X0416800Y0030490D02*
X0346900Y0030490D01*
X0346900Y0028891D02*
X0416800Y0028891D01*
X0416800Y0027293D02*
X0345970Y0027293D01*
X0344371Y0025694D02*
X0416800Y0025694D01*
X0416800Y0024096D02*
X0008800Y0024096D01*
X0008800Y0022497D02*
X0416800Y0022497D01*
X0416800Y0093800D02*
X0415847Y0093800D01*
X0415847Y0098573D01*
X0414676Y0099745D01*
X0413898Y0099745D01*
X0413898Y0101039D01*
X0413410Y0102215D01*
X0412013Y0103613D01*
X0411113Y0104513D01*
X0409937Y0105000D01*
X0364964Y0105000D01*
X0364349Y0105615D01*
X0362695Y0106300D01*
X0360905Y0106300D01*
X0359251Y0105615D01*
X0357985Y0104349D01*
X0357300Y0102695D01*
X0357300Y0101825D01*
X0356587Y0101113D01*
X0356100Y0099937D01*
X0356100Y0099125D01*
X0355548Y0098573D01*
X0355548Y0093800D01*
X0351800Y0093800D01*
X0351800Y0119800D01*
X0367753Y0119800D01*
X0367753Y0115342D01*
X0368924Y0114170D01*
X0394991Y0114170D01*
X0396162Y0115342D01*
X0396162Y0119800D01*
X0413901Y0119800D01*
X0416800Y0116901D01*
X0416800Y0093800D01*
X0416800Y0094430D02*
X0415847Y0094430D01*
X0415847Y0096029D02*
X0416800Y0096029D01*
X0416800Y0097627D02*
X0415847Y0097627D01*
X0415195Y0099226D02*
X0416800Y0099226D01*
X0416800Y0100824D02*
X0413898Y0100824D01*
X0413203Y0102423D02*
X0416800Y0102423D01*
X0416800Y0104021D02*
X0411604Y0104021D01*
X0416800Y0105620D02*
X0364338Y0105620D01*
X0359262Y0105620D02*
X0351800Y0105620D01*
X0351800Y0107218D02*
X0416800Y0107218D01*
X0416800Y0108817D02*
X0351800Y0108817D01*
X0351800Y0110415D02*
X0416800Y0110415D01*
X0416800Y0112014D02*
X0351800Y0112014D01*
X0351800Y0113612D02*
X0416800Y0113612D01*
X0416800Y0115211D02*
X0396031Y0115211D01*
X0396162Y0116809D02*
X0416800Y0116809D01*
X0415293Y0118408D02*
X0396162Y0118408D01*
X0367753Y0118408D02*
X0351800Y0118408D01*
X0351800Y0116809D02*
X0367753Y0116809D01*
X0367884Y0115211D02*
X0351800Y0115211D01*
X0351800Y0104021D02*
X0357849Y0104021D01*
X0357300Y0102423D02*
X0351800Y0102423D01*
X0351800Y0100824D02*
X0356468Y0100824D01*
X0356100Y0099226D02*
X0351800Y0099226D01*
X0351800Y0097627D02*
X0355548Y0097627D01*
X0355548Y0096029D02*
X0351800Y0096029D01*
X0351800Y0094430D02*
X0355548Y0094430D01*
D30*
X0331957Y0086800D02*
X0381957Y0086800D01*
X0434300Y0086800D01*
X0436800Y0084300D01*
X0436800Y0106800D02*
X0416800Y0126800D01*
X0381957Y0126800D01*
X0331957Y0126800D01*
X0281957Y0126800D02*
X0281800Y0126800D01*
X0281957Y0126643D01*
X0281800Y0126800D02*
X0231957Y0126800D01*
X0231957Y0086800D01*
X0231957Y0046800D01*
X0281957Y0046800D01*
X0331957Y0046800D02*
X0381957Y0046800D01*
X0416800Y0046800D01*
X0431800Y0061800D01*
X0436800Y0061800D01*
X0281800Y0086800D02*
X0276800Y0086800D01*
X0231957Y0086800D01*
D31*
X0260698Y0077824D02*
X0260698Y0072902D01*
X0264300Y0069300D01*
X0304300Y0069300D01*
X0309300Y0074300D01*
X0309300Y0076426D01*
X0310698Y0077824D01*
X0322981Y0077824D01*
X0331957Y0086800D01*
X0302174Y0109300D02*
X0310698Y0117824D01*
X0322981Y0117824D01*
X0331957Y0126800D01*
X0302174Y0109300D02*
X0266800Y0109300D01*
X0260698Y0115402D01*
X0260698Y0117824D01*
X0086800Y0096800D02*
X0077745Y0096800D01*
X0071800Y0090855D01*
X0042824Y0090698D02*
X0039902Y0090698D01*
X0033800Y0096800D01*
X0033800Y0101800D01*
X0034300Y0102300D01*
X0034300Y0108050D01*
X0047954Y0121704D01*
X0047954Y0119300D01*
X0047954Y0132954D01*
X0051800Y0135550D01*
X0062587Y0072745D02*
X0051800Y0061957D01*
X0051800Y0061800D01*
X0046800Y0056800D01*
X0029800Y0056800D01*
X0019800Y0066800D01*
X0062587Y0072745D02*
X0071800Y0072745D01*
X0260698Y0037824D02*
X0260698Y0032902D01*
X0266800Y0029300D01*
X0306800Y0029300D01*
X0310698Y0030698D01*
X0310698Y0037824D01*
X0322981Y0037824D01*
X0331957Y0046800D01*
D32*
X0344300Y0046866D02*
X0299366Y0046866D01*
X0299300Y0046800D02*
X0301800Y0049300D01*
X0316800Y0049300D01*
X0319300Y0051800D01*
X0319300Y0054300D01*
X0321800Y0056800D01*
X0344300Y0056800D01*
X0344300Y0029300D01*
X0341800Y0026800D01*
X0251800Y0026800D01*
X0249300Y0029300D01*
X0249300Y0039300D01*
X0264300Y0039300D01*
X0266800Y0036800D01*
X0266800Y0034300D01*
X0296800Y0034300D01*
X0299300Y0036800D01*
X0299300Y0046800D01*
X0299300Y0045667D02*
X0344300Y0045667D01*
X0344300Y0044469D02*
X0299300Y0044469D01*
X0299300Y0043270D02*
X0344300Y0043270D01*
X0344300Y0042072D02*
X0299300Y0042072D01*
X0299300Y0040873D02*
X0344300Y0040873D01*
X0344300Y0039675D02*
X0299300Y0039675D01*
X0299300Y0038476D02*
X0344300Y0038476D01*
X0344300Y0037278D02*
X0299300Y0037278D01*
X0298579Y0036079D02*
X0344300Y0036079D01*
X0344300Y0034881D02*
X0297381Y0034881D01*
X0266800Y0034881D02*
X0249300Y0034881D01*
X0249300Y0036079D02*
X0266800Y0036079D01*
X0266322Y0037278D02*
X0249300Y0037278D01*
X0249300Y0038476D02*
X0265124Y0038476D01*
X0249300Y0033682D02*
X0344300Y0033682D01*
X0344300Y0032484D02*
X0249300Y0032484D01*
X0249300Y0031285D02*
X0344300Y0031285D01*
X0344300Y0030087D02*
X0249300Y0030087D01*
X0249712Y0028888D02*
X0343888Y0028888D01*
X0342690Y0027690D02*
X0250910Y0027690D01*
X0244300Y0036800D02*
X0220550Y0036800D01*
X0220550Y0136800D01*
X0244300Y0136800D01*
X0244300Y0036800D01*
X0244300Y0037278D02*
X0220550Y0037278D01*
X0220550Y0038476D02*
X0244300Y0038476D01*
X0244300Y0039675D02*
X0220550Y0039675D01*
X0220550Y0040873D02*
X0244300Y0040873D01*
X0244300Y0042072D02*
X0220550Y0042072D01*
X0220550Y0043270D02*
X0244300Y0043270D01*
X0244300Y0044469D02*
X0220550Y0044469D01*
X0220550Y0045667D02*
X0244300Y0045667D01*
X0244300Y0046866D02*
X0220550Y0046866D01*
X0220550Y0048064D02*
X0244300Y0048064D01*
X0244300Y0049263D02*
X0220550Y0049263D01*
X0220550Y0050461D02*
X0244300Y0050461D01*
X0244300Y0051660D02*
X0220550Y0051660D01*
X0220550Y0052858D02*
X0244300Y0052858D01*
X0244300Y0054057D02*
X0220550Y0054057D01*
X0220550Y0055255D02*
X0244300Y0055255D01*
X0244300Y0056454D02*
X0220550Y0056454D01*
X0220550Y0057652D02*
X0244300Y0057652D01*
X0244300Y0058851D02*
X0220550Y0058851D01*
X0220550Y0060049D02*
X0244300Y0060049D01*
X0244300Y0061248D02*
X0220550Y0061248D01*
X0220550Y0062446D02*
X0244300Y0062446D01*
X0244300Y0063645D02*
X0220550Y0063645D01*
X0220550Y0064843D02*
X0244300Y0064843D01*
X0244300Y0066042D02*
X0220550Y0066042D01*
X0220550Y0067240D02*
X0244300Y0067240D01*
X0244300Y0068439D02*
X0220550Y0068439D01*
X0220550Y0069637D02*
X0244300Y0069637D01*
X0244300Y0070836D02*
X0220550Y0070836D01*
X0220550Y0072034D02*
X0244300Y0072034D01*
X0244300Y0073233D02*
X0220550Y0073233D01*
X0220550Y0074432D02*
X0244300Y0074432D01*
X0244300Y0075630D02*
X0220550Y0075630D01*
X0220550Y0076829D02*
X0244300Y0076829D01*
X0244300Y0078027D02*
X0220550Y0078027D01*
X0220550Y0079226D02*
X0244300Y0079226D01*
X0244300Y0080424D02*
X0220550Y0080424D01*
X0220550Y0081623D02*
X0244300Y0081623D01*
X0244300Y0082821D02*
X0220550Y0082821D01*
X0220550Y0084020D02*
X0244300Y0084020D01*
X0244300Y0085218D02*
X0220550Y0085218D01*
X0220550Y0086417D02*
X0244300Y0086417D01*
X0244300Y0087615D02*
X0220550Y0087615D01*
X0220550Y0088814D02*
X0244300Y0088814D01*
X0244300Y0090012D02*
X0220550Y0090012D01*
X0220550Y0091211D02*
X0244300Y0091211D01*
X0244300Y0092409D02*
X0220550Y0092409D01*
X0220550Y0093608D02*
X0244300Y0093608D01*
X0244300Y0094806D02*
X0220550Y0094806D01*
X0220550Y0096005D02*
X0244300Y0096005D01*
X0244300Y0097203D02*
X0220550Y0097203D01*
X0220550Y0098402D02*
X0244300Y0098402D01*
X0244300Y0099600D02*
X0220550Y0099600D01*
X0220550Y0100799D02*
X0244300Y0100799D01*
X0244300Y0101997D02*
X0220550Y0101997D01*
X0220550Y0103196D02*
X0244300Y0103196D01*
X0244300Y0104394D02*
X0220550Y0104394D01*
X0220550Y0105593D02*
X0244300Y0105593D01*
X0244300Y0106791D02*
X0220550Y0106791D01*
X0220550Y0107990D02*
X0244300Y0107990D01*
X0244300Y0109188D02*
X0220550Y0109188D01*
X0220550Y0110387D02*
X0244300Y0110387D01*
X0244300Y0111585D02*
X0220550Y0111585D01*
X0220550Y0112784D02*
X0244300Y0112784D01*
X0244300Y0113982D02*
X0220550Y0113982D01*
X0220550Y0115181D02*
X0244300Y0115181D01*
X0244300Y0116379D02*
X0220550Y0116379D01*
X0220550Y0117578D02*
X0244300Y0117578D01*
X0244300Y0118776D02*
X0220550Y0118776D01*
X0220550Y0119975D02*
X0244300Y0119975D01*
X0244300Y0121173D02*
X0220550Y0121173D01*
X0220550Y0122372D02*
X0244300Y0122372D01*
X0244300Y0123570D02*
X0220550Y0123570D01*
X0220550Y0124769D02*
X0244300Y0124769D01*
X0244300Y0125968D02*
X0220550Y0125968D01*
X0220550Y0127166D02*
X0244300Y0127166D01*
X0244300Y0128365D02*
X0220550Y0128365D01*
X0220550Y0129563D02*
X0244300Y0129563D01*
X0244300Y0130762D02*
X0220550Y0130762D01*
X0220550Y0131960D02*
X0244300Y0131960D01*
X0244300Y0133159D02*
X0220550Y0133159D01*
X0220550Y0134357D02*
X0244300Y0134357D01*
X0244300Y0135556D02*
X0220550Y0135556D01*
X0220550Y0136754D02*
X0244300Y0136754D01*
X0201800Y0121800D02*
X0201800Y0096800D01*
X0166800Y0091800D02*
X0156800Y0091800D01*
X0153050Y0088050D01*
X0141800Y0088050D01*
X0113050Y0116800D01*
X0106800Y0116800D01*
X0106800Y0106800D02*
X0115550Y0106800D01*
X0136800Y0085550D01*
X0154300Y0085550D01*
X0155550Y0086800D01*
X0166800Y0086800D01*
X0146800Y0115646D02*
X0145646Y0116800D01*
X0131800Y0116800D01*
X0121800Y0126800D01*
X0106800Y0126800D01*
X0061800Y0095550D02*
X0061800Y0092105D01*
X0063050Y0090855D01*
X0196800Y0126800D02*
X0201800Y0121800D01*
X0249300Y0119300D02*
X0249300Y0109300D01*
X0251800Y0106800D01*
X0341800Y0106800D01*
X0344300Y0109300D01*
X0344300Y0136800D01*
X0321800Y0136800D01*
X0319300Y0134300D01*
X0319300Y0131800D01*
X0316800Y0129300D01*
X0301800Y0129300D01*
X0299300Y0126800D01*
X0299300Y0116800D01*
X0296800Y0114300D01*
X0266800Y0114300D01*
X0266800Y0116800D01*
X0264300Y0119300D01*
X0249300Y0119300D01*
X0249300Y0118776D02*
X0264824Y0118776D01*
X0266022Y0117578D02*
X0249300Y0117578D01*
X0249300Y0116379D02*
X0266800Y0116379D01*
X0266800Y0115181D02*
X0249300Y0115181D01*
X0249300Y0113982D02*
X0344300Y0113982D01*
X0344300Y0112784D02*
X0249300Y0112784D01*
X0249300Y0111585D02*
X0344300Y0111585D01*
X0344300Y0110387D02*
X0249300Y0110387D01*
X0249412Y0109188D02*
X0344188Y0109188D01*
X0342990Y0107990D02*
X0250610Y0107990D01*
X0297681Y0115181D02*
X0344300Y0115181D01*
X0344300Y0116379D02*
X0298879Y0116379D01*
X0299300Y0117578D02*
X0344300Y0117578D01*
X0344300Y0118776D02*
X0299300Y0118776D01*
X0299300Y0119975D02*
X0344300Y0119975D01*
X0344300Y0121173D02*
X0299300Y0121173D01*
X0299300Y0122372D02*
X0344300Y0122372D01*
X0344300Y0123570D02*
X0299300Y0123570D01*
X0299300Y0124769D02*
X0344300Y0124769D01*
X0344300Y0125968D02*
X0299300Y0125968D01*
X0299666Y0127166D02*
X0344300Y0127166D01*
X0344300Y0128365D02*
X0300865Y0128365D01*
X0317063Y0129563D02*
X0344300Y0129563D01*
X0344300Y0130762D02*
X0318262Y0130762D01*
X0319300Y0131960D02*
X0344300Y0131960D01*
X0344300Y0133159D02*
X0319300Y0133159D01*
X0319357Y0134357D02*
X0344300Y0134357D01*
X0344300Y0135556D02*
X0320556Y0135556D01*
X0321754Y0136754D02*
X0344300Y0136754D01*
X0344300Y0096800D02*
X0321800Y0096800D01*
X0319300Y0094300D01*
X0319300Y0091800D01*
X0316800Y0089300D01*
X0301800Y0089300D01*
X0299300Y0086800D01*
X0299300Y0076800D01*
X0296800Y0074300D01*
X0266800Y0074300D01*
X0266800Y0076800D01*
X0264300Y0079300D01*
X0249300Y0079300D01*
X0249300Y0069300D01*
X0251800Y0066800D01*
X0341800Y0066800D01*
X0344300Y0069300D01*
X0344300Y0096800D01*
X0344300Y0096005D02*
X0321005Y0096005D01*
X0319806Y0094806D02*
X0344300Y0094806D01*
X0344300Y0093608D02*
X0319300Y0093608D01*
X0319300Y0092409D02*
X0344300Y0092409D01*
X0344300Y0091211D02*
X0318711Y0091211D01*
X0317512Y0090012D02*
X0344300Y0090012D01*
X0344300Y0088814D02*
X0301314Y0088814D01*
X0300115Y0087615D02*
X0344300Y0087615D01*
X0344300Y0086417D02*
X0299300Y0086417D01*
X0299300Y0085218D02*
X0344300Y0085218D01*
X0344300Y0084020D02*
X0299300Y0084020D01*
X0299300Y0082821D02*
X0344300Y0082821D01*
X0344300Y0081623D02*
X0299300Y0081623D01*
X0299300Y0080424D02*
X0344300Y0080424D01*
X0344300Y0079226D02*
X0299300Y0079226D01*
X0299300Y0078027D02*
X0344300Y0078027D01*
X0344300Y0076829D02*
X0299300Y0076829D01*
X0298130Y0075630D02*
X0344300Y0075630D01*
X0344300Y0074432D02*
X0296932Y0074432D01*
X0266800Y0074432D02*
X0249300Y0074432D01*
X0249300Y0075630D02*
X0266800Y0075630D01*
X0266771Y0076829D02*
X0249300Y0076829D01*
X0249300Y0078027D02*
X0265573Y0078027D01*
X0264374Y0079226D02*
X0249300Y0079226D01*
X0249300Y0073233D02*
X0344300Y0073233D01*
X0344300Y0072034D02*
X0249300Y0072034D01*
X0249300Y0070836D02*
X0344300Y0070836D01*
X0344300Y0069637D02*
X0249300Y0069637D01*
X0250161Y0068439D02*
X0343439Y0068439D01*
X0342240Y0067240D02*
X0251360Y0067240D01*
X0301763Y0049263D02*
X0344300Y0049263D01*
X0344300Y0050461D02*
X0317961Y0050461D01*
X0319160Y0051660D02*
X0344300Y0051660D01*
X0344300Y0052858D02*
X0319300Y0052858D01*
X0319300Y0054057D02*
X0344300Y0054057D01*
X0344300Y0055255D02*
X0320255Y0055255D01*
X0321454Y0056454D02*
X0344300Y0056454D01*
X0344300Y0048064D02*
X0300564Y0048064D01*
D33*
X0051800Y0061957D02*
X0051800Y0031800D01*
D34*
X0045550Y0028050D03*
X0054300Y0026800D03*
X0064300Y0026800D03*
X0074300Y0029300D03*
X0081800Y0026800D03*
X0089300Y0029300D03*
X0096800Y0026800D03*
X0104300Y0029300D03*
X0111800Y0026800D03*
X0119300Y0029300D03*
X0126800Y0026800D03*
X0134300Y0029300D03*
X0141800Y0026800D03*
X0149300Y0029300D03*
X0156800Y0026800D03*
X0164300Y0029300D03*
X0171800Y0026800D03*
X0179300Y0029300D03*
X0186800Y0026800D03*
X0194300Y0029300D03*
X0201800Y0026800D03*
X0209300Y0029300D03*
X0216800Y0026800D03*
X0224300Y0029300D03*
X0231800Y0026800D03*
X0239300Y0029300D03*
X0245550Y0026800D03*
X0178050Y0044300D03*
X0168050Y0044300D03*
X0158050Y0044300D03*
X0148050Y0044300D03*
X0143050Y0049300D03*
X0068050Y0063050D03*
X0059300Y0059300D03*
X0044300Y0055550D03*
X0030550Y0053050D03*
X0021800Y0051800D03*
X0014300Y0054300D03*
X0020550Y0058050D03*
X0014300Y0061800D03*
X0046800Y0071800D03*
X0056800Y0071800D03*
X0065550Y0074300D03*
X0071800Y0076800D03*
X0034300Y0074300D03*
X0020550Y0073050D03*
X0014300Y0076800D03*
X0020550Y0081800D03*
X0015550Y0086800D03*
X0020550Y0091800D03*
X0013050Y0094300D03*
X0034300Y0091800D03*
X0034300Y0084300D03*
X0039300Y0104300D03*
X0034300Y0111800D03*
X0031800Y0119300D03*
X0041800Y0121800D03*
X0036800Y0126800D03*
X0051800Y0129300D03*
X0044300Y0131800D03*
X0051800Y0135550D03*
X0059300Y0131800D03*
X0069300Y0131800D03*
X0079300Y0129300D03*
X0089300Y0131800D03*
X0099300Y0134300D03*
X0106800Y0139300D03*
X0114300Y0134300D03*
X0121800Y0139300D03*
X0131800Y0134300D03*
X0139300Y0139300D03*
X0146800Y0134300D03*
X0154300Y0139300D03*
X0161800Y0134300D03*
X0169300Y0139300D03*
X0176800Y0134300D03*
X0184300Y0139300D03*
X0191800Y0134300D03*
X0199300Y0139300D03*
X0174300Y0101800D03*
X0174300Y0096800D03*
X0081800Y0136800D03*
X0089300Y0139300D03*
X0071800Y0139300D03*
X0064300Y0136800D03*
X0056800Y0141800D03*
X0044300Y0141800D03*
X0031800Y0141800D03*
X0036800Y0136800D03*
X0013050Y0104300D03*
X0035550Y0048050D03*
X0014300Y0046800D03*
X0036800Y0038050D03*
X0035550Y0028050D03*
X0350550Y0026800D03*
X0360550Y0026800D03*
X0370550Y0026800D03*
X0380550Y0026800D03*
X0393050Y0026800D03*
X0403050Y0026800D03*
X0413050Y0029300D03*
X0405550Y0031800D03*
X0398050Y0031800D03*
X0388050Y0031800D03*
X0375550Y0031800D03*
X0363050Y0031800D03*
X0355550Y0031800D03*
X0355550Y0036800D03*
X0363050Y0036800D03*
X0403050Y0036800D03*
X0413050Y0036800D03*
X0413050Y0066800D03*
X0405550Y0066800D03*
X0395550Y0066800D03*
X0385550Y0066800D03*
X0380550Y0071800D03*
X0390550Y0071800D03*
X0400550Y0071800D03*
X0410550Y0071800D03*
X0413050Y0076800D03*
X0405550Y0076800D03*
X0375550Y0066800D03*
X0363050Y0069300D03*
X0355550Y0069300D03*
X0370550Y0071800D03*
X0363050Y0076800D03*
X0355550Y0076800D03*
X0415550Y0104300D03*
X0408050Y0109300D03*
X0415550Y0111800D03*
X0408050Y0116800D03*
X0400550Y0114300D03*
X0390550Y0111800D03*
X0385550Y0106800D03*
X0398050Y0106800D03*
X0379300Y0111800D03*
X0368050Y0111800D03*
X0360550Y0109300D03*
X0353050Y0109300D03*
X0355550Y0116800D03*
X0363050Y0116800D03*
X0373050Y0106800D03*
M02*
