G75*
%MOIN*%
%OFA0B0*%
%FSLAX25Y25*%
%IPPOS*%
%LPD*%
%AMOC8*
5,1,8,0,0,1.08239X$1,22.5*
%
%ADD10C,0.12217*%
%ADD11C,0.07900*%
%ADD12OC8,0.07100*%
%ADD13C,0.07100*%
%ADD14R,0.06312X0.05131*%
%ADD15R,0.07099X0.08280*%
%ADD16R,0.10249X0.06706*%
%ADD17R,0.07887X0.07493*%
%ADD18R,0.25209X0.22060*%
%ADD19R,0.07099X0.04737*%
%ADD20R,0.07200X0.03200*%
%ADD21R,0.22060X0.25209*%
%ADD22R,0.04737X0.07099*%
%ADD23R,0.06706X0.05918*%
%ADD24R,0.04737X0.05131*%
%ADD25R,0.05918X0.06706*%
%ADD26C,0.06737*%
%ADD27C,0.06800*%
D10*
X0021800Y0036800D03*
X0021800Y0131800D03*
X0436800Y0131800D03*
X0436800Y0036800D03*
D11*
X0056750Y0035750D02*
X0046850Y0035750D01*
X0056750Y0035750D02*
X0056750Y0027850D01*
X0046850Y0027850D01*
X0046850Y0035750D01*
X0046850Y0035749D02*
X0056750Y0035749D01*
X0056750Y0139500D02*
X0046850Y0139500D01*
X0056750Y0139500D02*
X0056750Y0131600D01*
X0046850Y0131600D01*
X0046850Y0139500D01*
X0046850Y0139499D02*
X0056750Y0139499D01*
X0431850Y0102850D02*
X0441750Y0102850D01*
X0431850Y0102850D02*
X0431850Y0110750D01*
X0441750Y0110750D01*
X0441750Y0102850D01*
X0441750Y0110749D02*
X0431850Y0110749D01*
X0431850Y0080350D02*
X0441750Y0080350D01*
X0431850Y0080350D02*
X0431850Y0088250D01*
X0441750Y0088250D01*
X0441750Y0080350D01*
X0441750Y0088249D02*
X0431850Y0088249D01*
X0431850Y0057850D02*
X0441750Y0057850D01*
X0431850Y0057850D02*
X0431850Y0065750D01*
X0441750Y0065750D01*
X0441750Y0057850D01*
X0441750Y0065749D02*
X0431850Y0065749D01*
D12*
X0019800Y0066800D03*
X0019800Y0101800D03*
D13*
X0033800Y0101800D03*
X0033800Y0066800D03*
D14*
X0054300Y0102863D03*
X0054300Y0110737D03*
D15*
X0146800Y0093296D03*
X0146800Y0080304D03*
X0206800Y0075304D03*
X0206800Y0088296D03*
D16*
X0071800Y0090855D03*
X0071800Y0072745D03*
D17*
X0171229Y0071800D03*
X0187371Y0071800D03*
D18*
X0231957Y0086800D03*
X0281957Y0086800D03*
X0331957Y0086800D03*
X0381957Y0086800D03*
X0381957Y0046800D03*
X0331957Y0046800D03*
X0281957Y0046800D03*
X0231957Y0046800D03*
X0231957Y0126800D03*
X0281957Y0126800D03*
X0331957Y0126800D03*
X0381957Y0126800D03*
D19*
X0360698Y0117824D03*
X0360698Y0135776D03*
X0410698Y0135776D03*
X0410698Y0117824D03*
X0410698Y0095776D03*
X0410698Y0077824D03*
X0360698Y0077824D03*
X0360698Y0095776D03*
X0310698Y0095776D03*
X0310698Y0077824D03*
X0260698Y0077824D03*
X0260698Y0095776D03*
X0260698Y0117824D03*
X0260698Y0135776D03*
X0310698Y0135776D03*
X0310698Y0117824D03*
X0310698Y0055776D03*
X0360698Y0055776D03*
X0410698Y0055776D03*
X0410698Y0037824D03*
X0360698Y0037824D03*
X0310698Y0037824D03*
X0260698Y0037824D03*
X0260698Y0055776D03*
D20*
X0191800Y0081800D03*
X0191800Y0086800D03*
X0191800Y0091800D03*
X0191800Y0096800D03*
X0166800Y0096800D03*
X0166800Y0091800D03*
X0166800Y0086800D03*
X0166800Y0081800D03*
D21*
X0051800Y0061957D03*
D22*
X0042824Y0090698D03*
X0060776Y0090698D03*
D23*
X0066800Y0102954D03*
X0066800Y0110646D03*
X0146800Y0107954D03*
X0158050Y0107954D03*
X0158050Y0115646D03*
X0146800Y0115646D03*
D24*
X0178454Y0106800D03*
X0185146Y0106800D03*
D25*
X0055646Y0119300D03*
X0047954Y0119300D03*
D26*
X0103831Y0116800D02*
X0109769Y0116800D01*
X0109769Y0106800D02*
X0103831Y0106800D01*
X0103831Y0091800D02*
X0109769Y0091800D01*
X0109769Y0081800D02*
X0103831Y0081800D01*
X0103831Y0071800D02*
X0109769Y0071800D01*
X0109769Y0056800D02*
X0103831Y0056800D01*
X0103831Y0046800D02*
X0109769Y0046800D01*
X0109769Y0036800D02*
X0103831Y0036800D01*
X0103831Y0126800D02*
X0109769Y0126800D01*
D27*
X0089800Y0106800D02*
X0083800Y0106800D01*
X0083800Y0096800D02*
X0089800Y0096800D01*
X0089800Y0086800D02*
X0083800Y0086800D01*
X0083800Y0076800D02*
X0089800Y0076800D01*
X0089800Y0066800D02*
X0083800Y0066800D01*
X0083800Y0056800D02*
X0089800Y0056800D01*
M02*
