G75*
%MOIN*%
%OFA0B0*%
%FSLAX25Y25*%
%IPPOS*%
%LPD*%
%AMOC8*
5,1,8,0,0,1.08239X$1,22.5*
%
%ADD10C,0.00000*%
%ADD11C,0.01800*%
%ADD12C,0.01000*%
%ADD13C,0.01200*%
%ADD14C,0.00500*%
%ADD15C,0.00800*%
%ADD16C,0.00400*%
%ADD17R,0.12000X0.02000*%
%ADD18R,0.01181X0.08268*%
%ADD19R,0.03000X0.03400*%
%ADD20R,0.03400X0.03000*%
%ADD21C,0.00300*%
D10*
X0006800Y0019300D02*
X0006800Y0148001D01*
X0451721Y0148001D01*
X0451721Y0019300D01*
X0006800Y0019300D01*
X0016091Y0036800D02*
X0016093Y0036951D01*
X0016099Y0037101D01*
X0016109Y0037252D01*
X0016123Y0037402D01*
X0016141Y0037551D01*
X0016162Y0037701D01*
X0016188Y0037849D01*
X0016218Y0037997D01*
X0016251Y0038144D01*
X0016289Y0038290D01*
X0016330Y0038435D01*
X0016375Y0038579D01*
X0016424Y0038721D01*
X0016477Y0038862D01*
X0016533Y0039002D01*
X0016593Y0039140D01*
X0016656Y0039277D01*
X0016724Y0039412D01*
X0016794Y0039545D01*
X0016868Y0039676D01*
X0016946Y0039805D01*
X0017027Y0039932D01*
X0017111Y0040057D01*
X0017199Y0040180D01*
X0017290Y0040300D01*
X0017384Y0040418D01*
X0017481Y0040533D01*
X0017581Y0040646D01*
X0017684Y0040756D01*
X0017790Y0040863D01*
X0017899Y0040968D01*
X0018010Y0041069D01*
X0018124Y0041168D01*
X0018240Y0041263D01*
X0018360Y0041356D01*
X0018481Y0041445D01*
X0018605Y0041531D01*
X0018731Y0041614D01*
X0018859Y0041693D01*
X0018989Y0041769D01*
X0019121Y0041842D01*
X0019255Y0041910D01*
X0019391Y0041976D01*
X0019529Y0042038D01*
X0019668Y0042096D01*
X0019808Y0042150D01*
X0019950Y0042201D01*
X0020093Y0042248D01*
X0020238Y0042291D01*
X0020383Y0042330D01*
X0020530Y0042366D01*
X0020677Y0042397D01*
X0020825Y0042425D01*
X0020974Y0042449D01*
X0021123Y0042469D01*
X0021273Y0042485D01*
X0021423Y0042497D01*
X0021574Y0042505D01*
X0021725Y0042509D01*
X0021875Y0042509D01*
X0022026Y0042505D01*
X0022177Y0042497D01*
X0022327Y0042485D01*
X0022477Y0042469D01*
X0022626Y0042449D01*
X0022775Y0042425D01*
X0022923Y0042397D01*
X0023070Y0042366D01*
X0023217Y0042330D01*
X0023362Y0042291D01*
X0023507Y0042248D01*
X0023650Y0042201D01*
X0023792Y0042150D01*
X0023932Y0042096D01*
X0024071Y0042038D01*
X0024209Y0041976D01*
X0024345Y0041910D01*
X0024479Y0041842D01*
X0024611Y0041769D01*
X0024741Y0041693D01*
X0024869Y0041614D01*
X0024995Y0041531D01*
X0025119Y0041445D01*
X0025240Y0041356D01*
X0025360Y0041263D01*
X0025476Y0041168D01*
X0025590Y0041069D01*
X0025701Y0040968D01*
X0025810Y0040863D01*
X0025916Y0040756D01*
X0026019Y0040646D01*
X0026119Y0040533D01*
X0026216Y0040418D01*
X0026310Y0040300D01*
X0026401Y0040180D01*
X0026489Y0040057D01*
X0026573Y0039932D01*
X0026654Y0039805D01*
X0026732Y0039676D01*
X0026806Y0039545D01*
X0026876Y0039412D01*
X0026944Y0039277D01*
X0027007Y0039140D01*
X0027067Y0039002D01*
X0027123Y0038862D01*
X0027176Y0038721D01*
X0027225Y0038579D01*
X0027270Y0038435D01*
X0027311Y0038290D01*
X0027349Y0038144D01*
X0027382Y0037997D01*
X0027412Y0037849D01*
X0027438Y0037701D01*
X0027459Y0037551D01*
X0027477Y0037402D01*
X0027491Y0037252D01*
X0027501Y0037101D01*
X0027507Y0036951D01*
X0027509Y0036800D01*
X0027507Y0036649D01*
X0027501Y0036499D01*
X0027491Y0036348D01*
X0027477Y0036198D01*
X0027459Y0036049D01*
X0027438Y0035899D01*
X0027412Y0035751D01*
X0027382Y0035603D01*
X0027349Y0035456D01*
X0027311Y0035310D01*
X0027270Y0035165D01*
X0027225Y0035021D01*
X0027176Y0034879D01*
X0027123Y0034738D01*
X0027067Y0034598D01*
X0027007Y0034460D01*
X0026944Y0034323D01*
X0026876Y0034188D01*
X0026806Y0034055D01*
X0026732Y0033924D01*
X0026654Y0033795D01*
X0026573Y0033668D01*
X0026489Y0033543D01*
X0026401Y0033420D01*
X0026310Y0033300D01*
X0026216Y0033182D01*
X0026119Y0033067D01*
X0026019Y0032954D01*
X0025916Y0032844D01*
X0025810Y0032737D01*
X0025701Y0032632D01*
X0025590Y0032531D01*
X0025476Y0032432D01*
X0025360Y0032337D01*
X0025240Y0032244D01*
X0025119Y0032155D01*
X0024995Y0032069D01*
X0024869Y0031986D01*
X0024741Y0031907D01*
X0024611Y0031831D01*
X0024479Y0031758D01*
X0024345Y0031690D01*
X0024209Y0031624D01*
X0024071Y0031562D01*
X0023932Y0031504D01*
X0023792Y0031450D01*
X0023650Y0031399D01*
X0023507Y0031352D01*
X0023362Y0031309D01*
X0023217Y0031270D01*
X0023070Y0031234D01*
X0022923Y0031203D01*
X0022775Y0031175D01*
X0022626Y0031151D01*
X0022477Y0031131D01*
X0022327Y0031115D01*
X0022177Y0031103D01*
X0022026Y0031095D01*
X0021875Y0031091D01*
X0021725Y0031091D01*
X0021574Y0031095D01*
X0021423Y0031103D01*
X0021273Y0031115D01*
X0021123Y0031131D01*
X0020974Y0031151D01*
X0020825Y0031175D01*
X0020677Y0031203D01*
X0020530Y0031234D01*
X0020383Y0031270D01*
X0020238Y0031309D01*
X0020093Y0031352D01*
X0019950Y0031399D01*
X0019808Y0031450D01*
X0019668Y0031504D01*
X0019529Y0031562D01*
X0019391Y0031624D01*
X0019255Y0031690D01*
X0019121Y0031758D01*
X0018989Y0031831D01*
X0018859Y0031907D01*
X0018731Y0031986D01*
X0018605Y0032069D01*
X0018481Y0032155D01*
X0018360Y0032244D01*
X0018240Y0032337D01*
X0018124Y0032432D01*
X0018010Y0032531D01*
X0017899Y0032632D01*
X0017790Y0032737D01*
X0017684Y0032844D01*
X0017581Y0032954D01*
X0017481Y0033067D01*
X0017384Y0033182D01*
X0017290Y0033300D01*
X0017199Y0033420D01*
X0017111Y0033543D01*
X0017027Y0033668D01*
X0016946Y0033795D01*
X0016868Y0033924D01*
X0016794Y0034055D01*
X0016724Y0034188D01*
X0016656Y0034323D01*
X0016593Y0034460D01*
X0016533Y0034598D01*
X0016477Y0034738D01*
X0016424Y0034879D01*
X0016375Y0035021D01*
X0016330Y0035165D01*
X0016289Y0035310D01*
X0016251Y0035456D01*
X0016218Y0035603D01*
X0016188Y0035751D01*
X0016162Y0035899D01*
X0016141Y0036049D01*
X0016123Y0036198D01*
X0016109Y0036348D01*
X0016099Y0036499D01*
X0016093Y0036649D01*
X0016091Y0036800D01*
X0016091Y0131800D02*
X0016093Y0131951D01*
X0016099Y0132101D01*
X0016109Y0132252D01*
X0016123Y0132402D01*
X0016141Y0132551D01*
X0016162Y0132701D01*
X0016188Y0132849D01*
X0016218Y0132997D01*
X0016251Y0133144D01*
X0016289Y0133290D01*
X0016330Y0133435D01*
X0016375Y0133579D01*
X0016424Y0133721D01*
X0016477Y0133862D01*
X0016533Y0134002D01*
X0016593Y0134140D01*
X0016656Y0134277D01*
X0016724Y0134412D01*
X0016794Y0134545D01*
X0016868Y0134676D01*
X0016946Y0134805D01*
X0017027Y0134932D01*
X0017111Y0135057D01*
X0017199Y0135180D01*
X0017290Y0135300D01*
X0017384Y0135418D01*
X0017481Y0135533D01*
X0017581Y0135646D01*
X0017684Y0135756D01*
X0017790Y0135863D01*
X0017899Y0135968D01*
X0018010Y0136069D01*
X0018124Y0136168D01*
X0018240Y0136263D01*
X0018360Y0136356D01*
X0018481Y0136445D01*
X0018605Y0136531D01*
X0018731Y0136614D01*
X0018859Y0136693D01*
X0018989Y0136769D01*
X0019121Y0136842D01*
X0019255Y0136910D01*
X0019391Y0136976D01*
X0019529Y0137038D01*
X0019668Y0137096D01*
X0019808Y0137150D01*
X0019950Y0137201D01*
X0020093Y0137248D01*
X0020238Y0137291D01*
X0020383Y0137330D01*
X0020530Y0137366D01*
X0020677Y0137397D01*
X0020825Y0137425D01*
X0020974Y0137449D01*
X0021123Y0137469D01*
X0021273Y0137485D01*
X0021423Y0137497D01*
X0021574Y0137505D01*
X0021725Y0137509D01*
X0021875Y0137509D01*
X0022026Y0137505D01*
X0022177Y0137497D01*
X0022327Y0137485D01*
X0022477Y0137469D01*
X0022626Y0137449D01*
X0022775Y0137425D01*
X0022923Y0137397D01*
X0023070Y0137366D01*
X0023217Y0137330D01*
X0023362Y0137291D01*
X0023507Y0137248D01*
X0023650Y0137201D01*
X0023792Y0137150D01*
X0023932Y0137096D01*
X0024071Y0137038D01*
X0024209Y0136976D01*
X0024345Y0136910D01*
X0024479Y0136842D01*
X0024611Y0136769D01*
X0024741Y0136693D01*
X0024869Y0136614D01*
X0024995Y0136531D01*
X0025119Y0136445D01*
X0025240Y0136356D01*
X0025360Y0136263D01*
X0025476Y0136168D01*
X0025590Y0136069D01*
X0025701Y0135968D01*
X0025810Y0135863D01*
X0025916Y0135756D01*
X0026019Y0135646D01*
X0026119Y0135533D01*
X0026216Y0135418D01*
X0026310Y0135300D01*
X0026401Y0135180D01*
X0026489Y0135057D01*
X0026573Y0134932D01*
X0026654Y0134805D01*
X0026732Y0134676D01*
X0026806Y0134545D01*
X0026876Y0134412D01*
X0026944Y0134277D01*
X0027007Y0134140D01*
X0027067Y0134002D01*
X0027123Y0133862D01*
X0027176Y0133721D01*
X0027225Y0133579D01*
X0027270Y0133435D01*
X0027311Y0133290D01*
X0027349Y0133144D01*
X0027382Y0132997D01*
X0027412Y0132849D01*
X0027438Y0132701D01*
X0027459Y0132551D01*
X0027477Y0132402D01*
X0027491Y0132252D01*
X0027501Y0132101D01*
X0027507Y0131951D01*
X0027509Y0131800D01*
X0027507Y0131649D01*
X0027501Y0131499D01*
X0027491Y0131348D01*
X0027477Y0131198D01*
X0027459Y0131049D01*
X0027438Y0130899D01*
X0027412Y0130751D01*
X0027382Y0130603D01*
X0027349Y0130456D01*
X0027311Y0130310D01*
X0027270Y0130165D01*
X0027225Y0130021D01*
X0027176Y0129879D01*
X0027123Y0129738D01*
X0027067Y0129598D01*
X0027007Y0129460D01*
X0026944Y0129323D01*
X0026876Y0129188D01*
X0026806Y0129055D01*
X0026732Y0128924D01*
X0026654Y0128795D01*
X0026573Y0128668D01*
X0026489Y0128543D01*
X0026401Y0128420D01*
X0026310Y0128300D01*
X0026216Y0128182D01*
X0026119Y0128067D01*
X0026019Y0127954D01*
X0025916Y0127844D01*
X0025810Y0127737D01*
X0025701Y0127632D01*
X0025590Y0127531D01*
X0025476Y0127432D01*
X0025360Y0127337D01*
X0025240Y0127244D01*
X0025119Y0127155D01*
X0024995Y0127069D01*
X0024869Y0126986D01*
X0024741Y0126907D01*
X0024611Y0126831D01*
X0024479Y0126758D01*
X0024345Y0126690D01*
X0024209Y0126624D01*
X0024071Y0126562D01*
X0023932Y0126504D01*
X0023792Y0126450D01*
X0023650Y0126399D01*
X0023507Y0126352D01*
X0023362Y0126309D01*
X0023217Y0126270D01*
X0023070Y0126234D01*
X0022923Y0126203D01*
X0022775Y0126175D01*
X0022626Y0126151D01*
X0022477Y0126131D01*
X0022327Y0126115D01*
X0022177Y0126103D01*
X0022026Y0126095D01*
X0021875Y0126091D01*
X0021725Y0126091D01*
X0021574Y0126095D01*
X0021423Y0126103D01*
X0021273Y0126115D01*
X0021123Y0126131D01*
X0020974Y0126151D01*
X0020825Y0126175D01*
X0020677Y0126203D01*
X0020530Y0126234D01*
X0020383Y0126270D01*
X0020238Y0126309D01*
X0020093Y0126352D01*
X0019950Y0126399D01*
X0019808Y0126450D01*
X0019668Y0126504D01*
X0019529Y0126562D01*
X0019391Y0126624D01*
X0019255Y0126690D01*
X0019121Y0126758D01*
X0018989Y0126831D01*
X0018859Y0126907D01*
X0018731Y0126986D01*
X0018605Y0127069D01*
X0018481Y0127155D01*
X0018360Y0127244D01*
X0018240Y0127337D01*
X0018124Y0127432D01*
X0018010Y0127531D01*
X0017899Y0127632D01*
X0017790Y0127737D01*
X0017684Y0127844D01*
X0017581Y0127954D01*
X0017481Y0128067D01*
X0017384Y0128182D01*
X0017290Y0128300D01*
X0017199Y0128420D01*
X0017111Y0128543D01*
X0017027Y0128668D01*
X0016946Y0128795D01*
X0016868Y0128924D01*
X0016794Y0129055D01*
X0016724Y0129188D01*
X0016656Y0129323D01*
X0016593Y0129460D01*
X0016533Y0129598D01*
X0016477Y0129738D01*
X0016424Y0129879D01*
X0016375Y0130021D01*
X0016330Y0130165D01*
X0016289Y0130310D01*
X0016251Y0130456D01*
X0016218Y0130603D01*
X0016188Y0130751D01*
X0016162Y0130899D01*
X0016141Y0131049D01*
X0016123Y0131198D01*
X0016109Y0131348D01*
X0016099Y0131499D01*
X0016093Y0131649D01*
X0016091Y0131800D01*
X0431091Y0131800D02*
X0431093Y0131951D01*
X0431099Y0132101D01*
X0431109Y0132252D01*
X0431123Y0132402D01*
X0431141Y0132551D01*
X0431162Y0132701D01*
X0431188Y0132849D01*
X0431218Y0132997D01*
X0431251Y0133144D01*
X0431289Y0133290D01*
X0431330Y0133435D01*
X0431375Y0133579D01*
X0431424Y0133721D01*
X0431477Y0133862D01*
X0431533Y0134002D01*
X0431593Y0134140D01*
X0431656Y0134277D01*
X0431724Y0134412D01*
X0431794Y0134545D01*
X0431868Y0134676D01*
X0431946Y0134805D01*
X0432027Y0134932D01*
X0432111Y0135057D01*
X0432199Y0135180D01*
X0432290Y0135300D01*
X0432384Y0135418D01*
X0432481Y0135533D01*
X0432581Y0135646D01*
X0432684Y0135756D01*
X0432790Y0135863D01*
X0432899Y0135968D01*
X0433010Y0136069D01*
X0433124Y0136168D01*
X0433240Y0136263D01*
X0433360Y0136356D01*
X0433481Y0136445D01*
X0433605Y0136531D01*
X0433731Y0136614D01*
X0433859Y0136693D01*
X0433989Y0136769D01*
X0434121Y0136842D01*
X0434255Y0136910D01*
X0434391Y0136976D01*
X0434529Y0137038D01*
X0434668Y0137096D01*
X0434808Y0137150D01*
X0434950Y0137201D01*
X0435093Y0137248D01*
X0435238Y0137291D01*
X0435383Y0137330D01*
X0435530Y0137366D01*
X0435677Y0137397D01*
X0435825Y0137425D01*
X0435974Y0137449D01*
X0436123Y0137469D01*
X0436273Y0137485D01*
X0436423Y0137497D01*
X0436574Y0137505D01*
X0436725Y0137509D01*
X0436875Y0137509D01*
X0437026Y0137505D01*
X0437177Y0137497D01*
X0437327Y0137485D01*
X0437477Y0137469D01*
X0437626Y0137449D01*
X0437775Y0137425D01*
X0437923Y0137397D01*
X0438070Y0137366D01*
X0438217Y0137330D01*
X0438362Y0137291D01*
X0438507Y0137248D01*
X0438650Y0137201D01*
X0438792Y0137150D01*
X0438932Y0137096D01*
X0439071Y0137038D01*
X0439209Y0136976D01*
X0439345Y0136910D01*
X0439479Y0136842D01*
X0439611Y0136769D01*
X0439741Y0136693D01*
X0439869Y0136614D01*
X0439995Y0136531D01*
X0440119Y0136445D01*
X0440240Y0136356D01*
X0440360Y0136263D01*
X0440476Y0136168D01*
X0440590Y0136069D01*
X0440701Y0135968D01*
X0440810Y0135863D01*
X0440916Y0135756D01*
X0441019Y0135646D01*
X0441119Y0135533D01*
X0441216Y0135418D01*
X0441310Y0135300D01*
X0441401Y0135180D01*
X0441489Y0135057D01*
X0441573Y0134932D01*
X0441654Y0134805D01*
X0441732Y0134676D01*
X0441806Y0134545D01*
X0441876Y0134412D01*
X0441944Y0134277D01*
X0442007Y0134140D01*
X0442067Y0134002D01*
X0442123Y0133862D01*
X0442176Y0133721D01*
X0442225Y0133579D01*
X0442270Y0133435D01*
X0442311Y0133290D01*
X0442349Y0133144D01*
X0442382Y0132997D01*
X0442412Y0132849D01*
X0442438Y0132701D01*
X0442459Y0132551D01*
X0442477Y0132402D01*
X0442491Y0132252D01*
X0442501Y0132101D01*
X0442507Y0131951D01*
X0442509Y0131800D01*
X0442507Y0131649D01*
X0442501Y0131499D01*
X0442491Y0131348D01*
X0442477Y0131198D01*
X0442459Y0131049D01*
X0442438Y0130899D01*
X0442412Y0130751D01*
X0442382Y0130603D01*
X0442349Y0130456D01*
X0442311Y0130310D01*
X0442270Y0130165D01*
X0442225Y0130021D01*
X0442176Y0129879D01*
X0442123Y0129738D01*
X0442067Y0129598D01*
X0442007Y0129460D01*
X0441944Y0129323D01*
X0441876Y0129188D01*
X0441806Y0129055D01*
X0441732Y0128924D01*
X0441654Y0128795D01*
X0441573Y0128668D01*
X0441489Y0128543D01*
X0441401Y0128420D01*
X0441310Y0128300D01*
X0441216Y0128182D01*
X0441119Y0128067D01*
X0441019Y0127954D01*
X0440916Y0127844D01*
X0440810Y0127737D01*
X0440701Y0127632D01*
X0440590Y0127531D01*
X0440476Y0127432D01*
X0440360Y0127337D01*
X0440240Y0127244D01*
X0440119Y0127155D01*
X0439995Y0127069D01*
X0439869Y0126986D01*
X0439741Y0126907D01*
X0439611Y0126831D01*
X0439479Y0126758D01*
X0439345Y0126690D01*
X0439209Y0126624D01*
X0439071Y0126562D01*
X0438932Y0126504D01*
X0438792Y0126450D01*
X0438650Y0126399D01*
X0438507Y0126352D01*
X0438362Y0126309D01*
X0438217Y0126270D01*
X0438070Y0126234D01*
X0437923Y0126203D01*
X0437775Y0126175D01*
X0437626Y0126151D01*
X0437477Y0126131D01*
X0437327Y0126115D01*
X0437177Y0126103D01*
X0437026Y0126095D01*
X0436875Y0126091D01*
X0436725Y0126091D01*
X0436574Y0126095D01*
X0436423Y0126103D01*
X0436273Y0126115D01*
X0436123Y0126131D01*
X0435974Y0126151D01*
X0435825Y0126175D01*
X0435677Y0126203D01*
X0435530Y0126234D01*
X0435383Y0126270D01*
X0435238Y0126309D01*
X0435093Y0126352D01*
X0434950Y0126399D01*
X0434808Y0126450D01*
X0434668Y0126504D01*
X0434529Y0126562D01*
X0434391Y0126624D01*
X0434255Y0126690D01*
X0434121Y0126758D01*
X0433989Y0126831D01*
X0433859Y0126907D01*
X0433731Y0126986D01*
X0433605Y0127069D01*
X0433481Y0127155D01*
X0433360Y0127244D01*
X0433240Y0127337D01*
X0433124Y0127432D01*
X0433010Y0127531D01*
X0432899Y0127632D01*
X0432790Y0127737D01*
X0432684Y0127844D01*
X0432581Y0127954D01*
X0432481Y0128067D01*
X0432384Y0128182D01*
X0432290Y0128300D01*
X0432199Y0128420D01*
X0432111Y0128543D01*
X0432027Y0128668D01*
X0431946Y0128795D01*
X0431868Y0128924D01*
X0431794Y0129055D01*
X0431724Y0129188D01*
X0431656Y0129323D01*
X0431593Y0129460D01*
X0431533Y0129598D01*
X0431477Y0129738D01*
X0431424Y0129879D01*
X0431375Y0130021D01*
X0431330Y0130165D01*
X0431289Y0130310D01*
X0431251Y0130456D01*
X0431218Y0130603D01*
X0431188Y0130751D01*
X0431162Y0130899D01*
X0431141Y0131049D01*
X0431123Y0131198D01*
X0431109Y0131348D01*
X0431099Y0131499D01*
X0431093Y0131649D01*
X0431091Y0131800D01*
X0431091Y0036800D02*
X0431093Y0036951D01*
X0431099Y0037101D01*
X0431109Y0037252D01*
X0431123Y0037402D01*
X0431141Y0037551D01*
X0431162Y0037701D01*
X0431188Y0037849D01*
X0431218Y0037997D01*
X0431251Y0038144D01*
X0431289Y0038290D01*
X0431330Y0038435D01*
X0431375Y0038579D01*
X0431424Y0038721D01*
X0431477Y0038862D01*
X0431533Y0039002D01*
X0431593Y0039140D01*
X0431656Y0039277D01*
X0431724Y0039412D01*
X0431794Y0039545D01*
X0431868Y0039676D01*
X0431946Y0039805D01*
X0432027Y0039932D01*
X0432111Y0040057D01*
X0432199Y0040180D01*
X0432290Y0040300D01*
X0432384Y0040418D01*
X0432481Y0040533D01*
X0432581Y0040646D01*
X0432684Y0040756D01*
X0432790Y0040863D01*
X0432899Y0040968D01*
X0433010Y0041069D01*
X0433124Y0041168D01*
X0433240Y0041263D01*
X0433360Y0041356D01*
X0433481Y0041445D01*
X0433605Y0041531D01*
X0433731Y0041614D01*
X0433859Y0041693D01*
X0433989Y0041769D01*
X0434121Y0041842D01*
X0434255Y0041910D01*
X0434391Y0041976D01*
X0434529Y0042038D01*
X0434668Y0042096D01*
X0434808Y0042150D01*
X0434950Y0042201D01*
X0435093Y0042248D01*
X0435238Y0042291D01*
X0435383Y0042330D01*
X0435530Y0042366D01*
X0435677Y0042397D01*
X0435825Y0042425D01*
X0435974Y0042449D01*
X0436123Y0042469D01*
X0436273Y0042485D01*
X0436423Y0042497D01*
X0436574Y0042505D01*
X0436725Y0042509D01*
X0436875Y0042509D01*
X0437026Y0042505D01*
X0437177Y0042497D01*
X0437327Y0042485D01*
X0437477Y0042469D01*
X0437626Y0042449D01*
X0437775Y0042425D01*
X0437923Y0042397D01*
X0438070Y0042366D01*
X0438217Y0042330D01*
X0438362Y0042291D01*
X0438507Y0042248D01*
X0438650Y0042201D01*
X0438792Y0042150D01*
X0438932Y0042096D01*
X0439071Y0042038D01*
X0439209Y0041976D01*
X0439345Y0041910D01*
X0439479Y0041842D01*
X0439611Y0041769D01*
X0439741Y0041693D01*
X0439869Y0041614D01*
X0439995Y0041531D01*
X0440119Y0041445D01*
X0440240Y0041356D01*
X0440360Y0041263D01*
X0440476Y0041168D01*
X0440590Y0041069D01*
X0440701Y0040968D01*
X0440810Y0040863D01*
X0440916Y0040756D01*
X0441019Y0040646D01*
X0441119Y0040533D01*
X0441216Y0040418D01*
X0441310Y0040300D01*
X0441401Y0040180D01*
X0441489Y0040057D01*
X0441573Y0039932D01*
X0441654Y0039805D01*
X0441732Y0039676D01*
X0441806Y0039545D01*
X0441876Y0039412D01*
X0441944Y0039277D01*
X0442007Y0039140D01*
X0442067Y0039002D01*
X0442123Y0038862D01*
X0442176Y0038721D01*
X0442225Y0038579D01*
X0442270Y0038435D01*
X0442311Y0038290D01*
X0442349Y0038144D01*
X0442382Y0037997D01*
X0442412Y0037849D01*
X0442438Y0037701D01*
X0442459Y0037551D01*
X0442477Y0037402D01*
X0442491Y0037252D01*
X0442501Y0037101D01*
X0442507Y0036951D01*
X0442509Y0036800D01*
X0442507Y0036649D01*
X0442501Y0036499D01*
X0442491Y0036348D01*
X0442477Y0036198D01*
X0442459Y0036049D01*
X0442438Y0035899D01*
X0442412Y0035751D01*
X0442382Y0035603D01*
X0442349Y0035456D01*
X0442311Y0035310D01*
X0442270Y0035165D01*
X0442225Y0035021D01*
X0442176Y0034879D01*
X0442123Y0034738D01*
X0442067Y0034598D01*
X0442007Y0034460D01*
X0441944Y0034323D01*
X0441876Y0034188D01*
X0441806Y0034055D01*
X0441732Y0033924D01*
X0441654Y0033795D01*
X0441573Y0033668D01*
X0441489Y0033543D01*
X0441401Y0033420D01*
X0441310Y0033300D01*
X0441216Y0033182D01*
X0441119Y0033067D01*
X0441019Y0032954D01*
X0440916Y0032844D01*
X0440810Y0032737D01*
X0440701Y0032632D01*
X0440590Y0032531D01*
X0440476Y0032432D01*
X0440360Y0032337D01*
X0440240Y0032244D01*
X0440119Y0032155D01*
X0439995Y0032069D01*
X0439869Y0031986D01*
X0439741Y0031907D01*
X0439611Y0031831D01*
X0439479Y0031758D01*
X0439345Y0031690D01*
X0439209Y0031624D01*
X0439071Y0031562D01*
X0438932Y0031504D01*
X0438792Y0031450D01*
X0438650Y0031399D01*
X0438507Y0031352D01*
X0438362Y0031309D01*
X0438217Y0031270D01*
X0438070Y0031234D01*
X0437923Y0031203D01*
X0437775Y0031175D01*
X0437626Y0031151D01*
X0437477Y0031131D01*
X0437327Y0031115D01*
X0437177Y0031103D01*
X0437026Y0031095D01*
X0436875Y0031091D01*
X0436725Y0031091D01*
X0436574Y0031095D01*
X0436423Y0031103D01*
X0436273Y0031115D01*
X0436123Y0031131D01*
X0435974Y0031151D01*
X0435825Y0031175D01*
X0435677Y0031203D01*
X0435530Y0031234D01*
X0435383Y0031270D01*
X0435238Y0031309D01*
X0435093Y0031352D01*
X0434950Y0031399D01*
X0434808Y0031450D01*
X0434668Y0031504D01*
X0434529Y0031562D01*
X0434391Y0031624D01*
X0434255Y0031690D01*
X0434121Y0031758D01*
X0433989Y0031831D01*
X0433859Y0031907D01*
X0433731Y0031986D01*
X0433605Y0032069D01*
X0433481Y0032155D01*
X0433360Y0032244D01*
X0433240Y0032337D01*
X0433124Y0032432D01*
X0433010Y0032531D01*
X0432899Y0032632D01*
X0432790Y0032737D01*
X0432684Y0032844D01*
X0432581Y0032954D01*
X0432481Y0033067D01*
X0432384Y0033182D01*
X0432290Y0033300D01*
X0432199Y0033420D01*
X0432111Y0033543D01*
X0432027Y0033668D01*
X0431946Y0033795D01*
X0431868Y0033924D01*
X0431794Y0034055D01*
X0431724Y0034188D01*
X0431656Y0034323D01*
X0431593Y0034460D01*
X0431533Y0034598D01*
X0431477Y0034738D01*
X0431424Y0034879D01*
X0431375Y0035021D01*
X0431330Y0035165D01*
X0431289Y0035310D01*
X0431251Y0035456D01*
X0431218Y0035603D01*
X0431188Y0035751D01*
X0431162Y0035899D01*
X0431141Y0036049D01*
X0431123Y0036198D01*
X0431109Y0036348D01*
X0431099Y0036499D01*
X0431093Y0036649D01*
X0431091Y0036800D01*
D11*
X0080900Y0031806D02*
X0072092Y0031806D01*
X0076496Y0129902D02*
X0076496Y0138709D01*
X0080900Y0134306D02*
X0072092Y0134306D01*
D12*
X0069300Y0141800D02*
X0069300Y0126800D01*
X0084300Y0126800D01*
X0084300Y0141800D01*
X0069300Y0141800D01*
X0178316Y0074753D02*
X0178316Y0069044D01*
X0182450Y0071800D01*
X0178316Y0074753D01*
X0084300Y0039300D02*
X0084300Y0024300D01*
X0069300Y0024300D01*
X0069300Y0039300D01*
X0084300Y0039300D01*
D13*
X0417828Y0059900D02*
X0417828Y0065772D01*
X0420764Y0068708D01*
X0423700Y0065772D01*
X0423700Y0059900D01*
X0423700Y0064304D02*
X0417828Y0064304D01*
X0419296Y0079900D02*
X0423700Y0079900D01*
X0423700Y0088708D01*
X0419296Y0088708D01*
X0417828Y0087240D01*
X0417828Y0085772D01*
X0419296Y0084304D01*
X0423700Y0084304D01*
X0419296Y0084304D02*
X0417828Y0082836D01*
X0417828Y0081368D01*
X0419296Y0079900D01*
X0419296Y0102400D02*
X0417828Y0103868D01*
X0419296Y0102400D02*
X0422232Y0102400D01*
X0423700Y0103868D01*
X0423700Y0109740D01*
X0422232Y0111208D01*
X0419296Y0111208D01*
X0417828Y0109740D01*
D14*
X0210800Y0080300D02*
X0202800Y0080300D01*
X0186800Y0078800D02*
X0186800Y0099800D01*
X0171800Y0099800D01*
X0171800Y0078800D01*
X0177300Y0078800D01*
X0177302Y0078898D01*
X0177308Y0078996D01*
X0177317Y0079094D01*
X0177331Y0079191D01*
X0177348Y0079288D01*
X0177369Y0079384D01*
X0177394Y0079479D01*
X0177422Y0079573D01*
X0177455Y0079665D01*
X0177490Y0079757D01*
X0177530Y0079847D01*
X0177572Y0079935D01*
X0177619Y0080022D01*
X0177668Y0080106D01*
X0177721Y0080189D01*
X0177777Y0080269D01*
X0177837Y0080348D01*
X0177899Y0080424D01*
X0177964Y0080497D01*
X0178032Y0080568D01*
X0178103Y0080636D01*
X0178176Y0080701D01*
X0178252Y0080763D01*
X0178331Y0080823D01*
X0178411Y0080879D01*
X0178494Y0080932D01*
X0178578Y0080981D01*
X0178665Y0081028D01*
X0178753Y0081070D01*
X0178843Y0081110D01*
X0178935Y0081145D01*
X0179027Y0081178D01*
X0179121Y0081206D01*
X0179216Y0081231D01*
X0179312Y0081252D01*
X0179409Y0081269D01*
X0179506Y0081283D01*
X0179604Y0081292D01*
X0179702Y0081298D01*
X0179800Y0081300D01*
X0179898Y0081298D01*
X0179996Y0081292D01*
X0180094Y0081283D01*
X0180191Y0081269D01*
X0180288Y0081252D01*
X0180384Y0081231D01*
X0180479Y0081206D01*
X0180573Y0081178D01*
X0180665Y0081145D01*
X0180757Y0081110D01*
X0180847Y0081070D01*
X0180935Y0081028D01*
X0181022Y0080981D01*
X0181106Y0080932D01*
X0181189Y0080879D01*
X0181269Y0080823D01*
X0181348Y0080763D01*
X0181424Y0080701D01*
X0181497Y0080636D01*
X0181568Y0080568D01*
X0181636Y0080497D01*
X0181701Y0080424D01*
X0181763Y0080348D01*
X0181823Y0080269D01*
X0181879Y0080189D01*
X0181932Y0080106D01*
X0181981Y0080022D01*
X0182028Y0079935D01*
X0182070Y0079847D01*
X0182110Y0079757D01*
X0182145Y0079665D01*
X0182178Y0079573D01*
X0182206Y0079479D01*
X0182231Y0079384D01*
X0182252Y0079288D01*
X0182269Y0079191D01*
X0182283Y0079094D01*
X0182292Y0078996D01*
X0182298Y0078898D01*
X0182300Y0078800D01*
X0186800Y0078800D01*
X0150800Y0085300D02*
X0142800Y0085300D01*
X0142800Y0103800D02*
X0142800Y0107800D01*
X0142800Y0103800D02*
X0150800Y0103800D01*
X0150800Y0107800D01*
X0154050Y0107800D02*
X0154050Y0103800D01*
X0162050Y0103800D01*
X0162050Y0107800D01*
X0162050Y0115800D02*
X0162050Y0119800D01*
X0154050Y0119800D01*
X0154050Y0115800D01*
X0150800Y0115800D02*
X0150800Y0119800D01*
X0142800Y0119800D01*
X0142800Y0115800D01*
X0078099Y0092824D02*
X0075737Y0095186D01*
X0067863Y0095186D01*
X0065501Y0092824D01*
X0065501Y0069202D01*
X0078099Y0069202D01*
X0078099Y0092824D01*
X0070800Y0098800D02*
X0062800Y0098800D01*
X0062800Y0102800D01*
X0070800Y0102800D02*
X0070800Y0098800D01*
X0047479Y0101439D02*
X0046895Y0100855D01*
X0045728Y0100855D01*
X0045144Y0101439D01*
X0043796Y0100855D02*
X0041461Y0103190D01*
X0041461Y0103774D01*
X0042045Y0104358D01*
X0043212Y0104358D01*
X0043796Y0103774D01*
X0045144Y0103774D02*
X0045728Y0104358D01*
X0046895Y0104358D01*
X0047479Y0103774D01*
X0047479Y0101439D01*
X0043796Y0100855D02*
X0041461Y0100855D01*
X0062800Y0110800D02*
X0062800Y0114800D01*
X0070800Y0114800D01*
X0070800Y0110800D01*
X0059800Y0115300D02*
X0055800Y0115300D01*
X0059800Y0115300D02*
X0059800Y0123300D01*
X0055800Y0123300D01*
X0047800Y0123300D02*
X0043800Y0123300D01*
X0043800Y0115300D01*
X0047800Y0115300D01*
X0068615Y0065553D02*
X0069783Y0065553D01*
X0070367Y0064969D01*
X0070367Y0064385D01*
X0069783Y0063801D01*
X0068032Y0063801D01*
X0068032Y0062634D02*
X0068032Y0064969D01*
X0068615Y0065553D01*
X0071715Y0064969D02*
X0072299Y0065553D01*
X0073466Y0065553D01*
X0074050Y0064969D01*
X0074050Y0062634D01*
X0073466Y0062050D01*
X0072299Y0062050D01*
X0071715Y0062634D01*
X0070367Y0062634D02*
X0069783Y0062050D01*
X0068615Y0062050D01*
X0068032Y0062634D01*
X0058783Y0046553D02*
X0056447Y0046553D01*
X0056447Y0045969D01*
X0058783Y0043634D01*
X0058783Y0043050D01*
X0055099Y0043634D02*
X0055099Y0044218D01*
X0054516Y0044801D01*
X0053348Y0044801D01*
X0052764Y0044218D01*
X0052764Y0043634D01*
X0053348Y0043050D01*
X0054516Y0043050D01*
X0055099Y0043634D01*
X0054516Y0044801D02*
X0055099Y0045385D01*
X0055099Y0045969D01*
X0054516Y0046553D01*
X0053348Y0046553D01*
X0052764Y0045969D01*
X0052764Y0045385D01*
X0053348Y0044801D01*
X0051416Y0043634D02*
X0051416Y0045969D01*
X0050832Y0046553D01*
X0049665Y0046553D01*
X0049081Y0045969D01*
X0051416Y0043634D01*
X0050832Y0043050D01*
X0049665Y0043050D01*
X0049081Y0043634D01*
X0049081Y0045969D01*
X0047733Y0046553D02*
X0047733Y0044801D01*
X0046566Y0045385D01*
X0045982Y0045385D01*
X0045398Y0044801D01*
X0045398Y0043634D01*
X0045982Y0043050D01*
X0047149Y0043050D01*
X0047733Y0043634D01*
X0047733Y0046553D02*
X0045398Y0046553D01*
D15*
X0038900Y0056700D02*
X0038898Y0080300D01*
X0064702Y0080300D01*
X0064700Y0056700D01*
X0142076Y0076564D02*
X0142076Y0082863D01*
X0151524Y0082863D02*
X0151524Y0076564D01*
X0149950Y0074989D01*
X0143650Y0074989D01*
X0142076Y0076564D01*
X0142076Y0090737D02*
X0142076Y0098611D01*
X0151524Y0098611D01*
X0151524Y0090737D01*
X0202076Y0093611D02*
X0202076Y0085737D01*
X0211524Y0085737D02*
X0211524Y0093611D01*
X0202076Y0093611D01*
X0226700Y0099700D02*
X0250300Y0099702D01*
X0250300Y0073898D01*
X0226700Y0073900D01*
X0211524Y0071564D02*
X0209950Y0069989D01*
X0203650Y0069989D01*
X0202076Y0071564D01*
X0202076Y0077863D01*
X0211524Y0077863D02*
X0211524Y0071564D01*
X0226700Y0059700D02*
X0250300Y0059702D01*
X0250300Y0033898D01*
X0226700Y0033900D01*
X0276700Y0033900D02*
X0300300Y0033898D01*
X0300300Y0059702D01*
X0276700Y0059700D01*
X0276700Y0073900D02*
X0300300Y0073898D01*
X0300300Y0099702D01*
X0276700Y0099700D01*
X0276700Y0113900D02*
X0300300Y0113898D01*
X0300300Y0139702D01*
X0276700Y0139700D01*
X0250300Y0139702D02*
X0226700Y0139700D01*
X0250300Y0139702D02*
X0250300Y0113898D01*
X0226700Y0113900D01*
X0326700Y0113900D02*
X0350300Y0113898D01*
X0350300Y0139702D01*
X0326700Y0139700D01*
X0376700Y0139700D02*
X0400300Y0139702D01*
X0400300Y0113898D01*
X0376700Y0113900D01*
X0376700Y0099700D02*
X0400300Y0099702D01*
X0400300Y0073898D01*
X0376700Y0073900D01*
X0350300Y0073898D02*
X0350300Y0099702D01*
X0326700Y0099700D01*
X0326700Y0073900D02*
X0350300Y0073898D01*
X0350300Y0059702D02*
X0326700Y0059700D01*
X0350300Y0059702D02*
X0350300Y0033898D01*
X0326700Y0033900D01*
X0376700Y0033900D02*
X0400300Y0033898D01*
X0400300Y0059702D01*
X0376700Y0059700D01*
D16*
X0373976Y0061233D02*
X0370907Y0061233D01*
X0369373Y0062000D02*
X0369373Y0065069D01*
X0367838Y0066604D01*
X0366303Y0065069D01*
X0366303Y0062000D01*
X0364769Y0062000D02*
X0361699Y0062000D01*
X0363234Y0062000D02*
X0363234Y0066604D01*
X0364769Y0065069D01*
X0366303Y0064302D02*
X0369373Y0064302D01*
X0375511Y0063535D02*
X0375511Y0062767D01*
X0376278Y0062000D01*
X0377813Y0062000D01*
X0378580Y0062767D01*
X0377813Y0064302D02*
X0376278Y0064302D01*
X0375511Y0063535D01*
X0375511Y0065837D02*
X0376278Y0066604D01*
X0377813Y0066604D01*
X0378580Y0065837D01*
X0378580Y0065069D01*
X0377813Y0064302D01*
X0380115Y0062000D02*
X0383184Y0062000D01*
X0383184Y0066604D01*
X0389323Y0066604D02*
X0392392Y0066604D01*
X0390858Y0066604D02*
X0390858Y0062000D01*
X0393927Y0062000D02*
X0396996Y0062000D01*
X0396996Y0066604D01*
X0393927Y0066604D01*
X0395461Y0064302D02*
X0396996Y0064302D01*
X0398531Y0066604D02*
X0401600Y0066604D01*
X0401600Y0062000D01*
X0401600Y0064302D02*
X0400065Y0064302D01*
X0387788Y0061233D02*
X0384719Y0061233D01*
X0351600Y0062000D02*
X0351600Y0066604D01*
X0348531Y0066604D01*
X0346996Y0066604D02*
X0346996Y0062000D01*
X0343927Y0062000D01*
X0345461Y0064302D02*
X0346996Y0064302D01*
X0346996Y0066604D02*
X0343927Y0066604D01*
X0342392Y0066604D02*
X0339323Y0066604D01*
X0340858Y0066604D02*
X0340858Y0062000D01*
X0337788Y0061233D02*
X0334719Y0061233D01*
X0333184Y0062000D02*
X0330115Y0062000D01*
X0328580Y0062767D02*
X0327813Y0062000D01*
X0326278Y0062000D01*
X0325511Y0062767D01*
X0325511Y0063535D01*
X0326278Y0064302D01*
X0327813Y0064302D01*
X0328580Y0065069D01*
X0328580Y0065837D01*
X0327813Y0066604D01*
X0326278Y0066604D01*
X0325511Y0065837D01*
X0319373Y0065069D02*
X0317838Y0066604D01*
X0316303Y0065069D01*
X0316303Y0062000D01*
X0316303Y0064302D02*
X0319373Y0064302D01*
X0319373Y0065069D02*
X0319373Y0062000D01*
X0320907Y0061233D02*
X0323976Y0061233D01*
X0333184Y0062000D02*
X0333184Y0066604D01*
X0350065Y0064302D02*
X0351600Y0064302D01*
X0301600Y0064302D02*
X0300065Y0064302D01*
X0301600Y0066604D02*
X0298531Y0066604D01*
X0296996Y0066604D02*
X0296996Y0062000D01*
X0293927Y0062000D01*
X0295461Y0064302D02*
X0296996Y0064302D01*
X0296996Y0066604D02*
X0293927Y0066604D01*
X0292392Y0066604D02*
X0289323Y0066604D01*
X0290858Y0066604D02*
X0290858Y0062000D01*
X0287788Y0061233D02*
X0284719Y0061233D01*
X0283184Y0062000D02*
X0283184Y0066604D01*
X0283184Y0064302D02*
X0280115Y0064302D01*
X0278580Y0065069D02*
X0277813Y0064302D01*
X0276278Y0064302D01*
X0275511Y0063535D01*
X0275511Y0062767D01*
X0276278Y0062000D01*
X0277813Y0062000D01*
X0278580Y0062767D01*
X0280115Y0062000D02*
X0280115Y0066604D01*
X0278580Y0065837D02*
X0278580Y0065069D01*
X0278580Y0065837D02*
X0277813Y0066604D01*
X0276278Y0066604D01*
X0275511Y0065837D01*
X0269373Y0065069D02*
X0267838Y0066604D01*
X0266303Y0065069D01*
X0266303Y0062000D01*
X0264769Y0062000D02*
X0261699Y0062000D01*
X0263234Y0062000D02*
X0263234Y0066604D01*
X0264769Y0065069D01*
X0266303Y0064302D02*
X0269373Y0064302D01*
X0269373Y0065069D02*
X0269373Y0062000D01*
X0270907Y0061233D02*
X0273976Y0061233D01*
X0251600Y0062000D02*
X0251600Y0066604D01*
X0248531Y0066604D01*
X0246996Y0066604D02*
X0246996Y0062000D01*
X0243927Y0062000D01*
X0245461Y0064302D02*
X0246996Y0064302D01*
X0246996Y0066604D02*
X0243927Y0066604D01*
X0242392Y0066604D02*
X0239323Y0066604D01*
X0240858Y0066604D02*
X0240858Y0062000D01*
X0237788Y0061233D02*
X0234719Y0061233D01*
X0233184Y0062000D02*
X0233184Y0066604D01*
X0233184Y0064302D02*
X0230115Y0064302D01*
X0228580Y0065069D02*
X0227813Y0064302D01*
X0226278Y0064302D01*
X0225511Y0063535D01*
X0225511Y0062767D01*
X0226278Y0062000D01*
X0227813Y0062000D01*
X0228580Y0062767D01*
X0230115Y0062000D02*
X0230115Y0066604D01*
X0228580Y0065837D02*
X0228580Y0065069D01*
X0228580Y0065837D02*
X0227813Y0066604D01*
X0226278Y0066604D01*
X0225511Y0065837D01*
X0219373Y0065069D02*
X0217838Y0066604D01*
X0216303Y0065069D01*
X0216303Y0062000D01*
X0216759Y0063363D02*
X0215824Y0063363D01*
X0215357Y0063830D01*
X0216303Y0064302D02*
X0219373Y0064302D01*
X0219373Y0065069D02*
X0219373Y0062000D01*
X0220907Y0061233D02*
X0223976Y0061233D01*
X0217226Y0063830D02*
X0216759Y0063363D01*
X0217226Y0063830D02*
X0217226Y0065698D01*
X0216759Y0066165D01*
X0215824Y0066165D01*
X0215357Y0065698D01*
X0211333Y0066165D02*
X0209931Y0066165D01*
X0209464Y0065698D01*
X0209464Y0065231D01*
X0209931Y0064764D01*
X0211333Y0064764D01*
X0211333Y0063363D02*
X0209931Y0063363D01*
X0209464Y0063830D01*
X0209464Y0064297D01*
X0209931Y0064764D01*
X0208386Y0063830D02*
X0207919Y0063363D01*
X0206985Y0063363D01*
X0206518Y0063830D01*
X0206518Y0065698D01*
X0206985Y0066165D01*
X0207919Y0066165D01*
X0208386Y0065698D01*
X0208386Y0063830D01*
X0205440Y0063830D02*
X0204972Y0063363D01*
X0204038Y0063363D01*
X0203571Y0063830D01*
X0203571Y0065698D01*
X0204038Y0066165D01*
X0204972Y0066165D01*
X0205440Y0065698D01*
X0205440Y0063830D01*
X0202493Y0066165D02*
X0200625Y0066165D01*
X0201559Y0066165D02*
X0201559Y0063363D01*
X0199547Y0063830D02*
X0199079Y0063363D01*
X0198145Y0063363D01*
X0197678Y0063830D01*
X0197678Y0065698D02*
X0198145Y0066165D01*
X0199079Y0066165D01*
X0199547Y0065698D01*
X0199547Y0063830D01*
X0211333Y0063363D02*
X0211333Y0066165D01*
X0212411Y0062896D02*
X0214279Y0062896D01*
X0189494Y0062063D02*
X0188093Y0062063D01*
X0187625Y0062530D01*
X0187625Y0064398D01*
X0188093Y0064865D01*
X0189494Y0064865D01*
X0189494Y0062063D01*
X0186547Y0061596D02*
X0184679Y0061596D01*
X0183601Y0062063D02*
X0182199Y0062063D01*
X0181732Y0062530D01*
X0181732Y0062997D01*
X0182199Y0063464D01*
X0183601Y0063464D01*
X0183601Y0062063D02*
X0183601Y0064865D01*
X0182199Y0064865D01*
X0181732Y0064398D01*
X0181732Y0063931D01*
X0182199Y0063464D01*
X0180654Y0062530D02*
X0180187Y0062063D01*
X0179253Y0062063D01*
X0178786Y0062530D01*
X0178786Y0064398D01*
X0179253Y0064865D01*
X0180187Y0064865D01*
X0180654Y0064398D01*
X0180654Y0062530D01*
X0177708Y0062530D02*
X0177241Y0062063D01*
X0176306Y0062063D01*
X0175839Y0062530D01*
X0175839Y0064398D01*
X0176306Y0064865D01*
X0177241Y0064865D01*
X0177708Y0064398D01*
X0177708Y0062530D01*
X0174761Y0064865D02*
X0172893Y0064865D01*
X0173827Y0064865D02*
X0173827Y0062063D01*
X0171815Y0062530D02*
X0171815Y0064398D01*
X0171348Y0064865D01*
X0170413Y0064865D01*
X0169946Y0064398D01*
X0169946Y0062530D02*
X0170413Y0062063D01*
X0171348Y0062063D01*
X0171815Y0062530D01*
X0149993Y0070080D02*
X0149526Y0069613D01*
X0148592Y0069613D01*
X0148125Y0070080D01*
X0147047Y0071014D02*
X0145178Y0071014D01*
X0145645Y0069613D02*
X0145645Y0072415D01*
X0147047Y0071014D01*
X0148125Y0071948D02*
X0148592Y0072415D01*
X0149526Y0072415D01*
X0149993Y0071948D01*
X0149993Y0070080D01*
X0173300Y0081800D02*
X0173300Y0083535D01*
X0173300Y0082667D02*
X0175902Y0082667D01*
X0175035Y0081800D01*
X0182800Y0082234D02*
X0183234Y0081800D01*
X0183667Y0081800D01*
X0184101Y0082234D01*
X0184101Y0083101D01*
X0183667Y0083535D01*
X0183234Y0083535D01*
X0182800Y0083101D01*
X0182800Y0082234D01*
X0184101Y0082234D02*
X0184535Y0081800D01*
X0184969Y0081800D01*
X0185402Y0082234D01*
X0185402Y0083101D01*
X0184969Y0083535D01*
X0184535Y0083535D01*
X0184101Y0083101D01*
X0184101Y0094700D02*
X0184535Y0095567D01*
X0184535Y0096001D01*
X0184101Y0096435D01*
X0183234Y0096435D01*
X0182800Y0096001D01*
X0182800Y0095134D01*
X0183234Y0094700D01*
X0184101Y0094700D02*
X0185402Y0094700D01*
X0185402Y0096435D01*
X0175902Y0095501D02*
X0174601Y0094200D01*
X0174601Y0095935D01*
X0173300Y0095501D02*
X0175902Y0095501D01*
X0167552Y0104000D02*
X0164750Y0104000D01*
X0165684Y0104000D02*
X0165684Y0105401D01*
X0166151Y0105868D01*
X0167085Y0105868D01*
X0167552Y0105401D01*
X0167552Y0104000D01*
X0165684Y0104934D02*
X0164750Y0105868D01*
X0165217Y0106947D02*
X0164750Y0107414D01*
X0164750Y0108348D01*
X0165217Y0108815D01*
X0166151Y0108815D01*
X0166151Y0107881D01*
X0167085Y0108815D02*
X0167552Y0108348D01*
X0167552Y0107414D01*
X0167085Y0106947D01*
X0165217Y0106947D01*
X0164750Y0109893D02*
X0167552Y0109893D01*
X0164750Y0111761D01*
X0167552Y0111761D01*
X0167552Y0112840D02*
X0164750Y0112840D01*
X0164750Y0114241D01*
X0165217Y0114708D01*
X0167085Y0114708D01*
X0167552Y0114241D01*
X0167552Y0112840D01*
X0164283Y0115786D02*
X0164283Y0117654D01*
X0165217Y0118733D02*
X0164750Y0119200D01*
X0164750Y0120134D01*
X0165217Y0120601D01*
X0164750Y0121679D02*
X0166618Y0123547D01*
X0167085Y0123547D01*
X0167552Y0123080D01*
X0167552Y0122146D01*
X0167085Y0121679D01*
X0167085Y0120601D02*
X0167552Y0120134D01*
X0167552Y0119200D01*
X0167085Y0118733D01*
X0165217Y0118733D01*
X0164750Y0121679D02*
X0164750Y0123547D01*
X0162052Y0122434D02*
X0161118Y0121500D01*
X0162052Y0122434D02*
X0159250Y0122434D01*
X0159250Y0121500D02*
X0159250Y0123368D01*
X0159717Y0124447D02*
X0161585Y0126315D01*
X0159717Y0126315D01*
X0159250Y0125848D01*
X0159250Y0124914D01*
X0159717Y0124447D01*
X0161585Y0124447D01*
X0162052Y0124914D01*
X0162052Y0125848D01*
X0161585Y0126315D01*
X0162052Y0127393D02*
X0159250Y0127393D01*
X0160184Y0127393D02*
X0161118Y0128794D01*
X0160184Y0127393D02*
X0159250Y0128794D01*
X0159250Y0132795D02*
X0159250Y0134663D01*
X0159250Y0133729D02*
X0162052Y0133729D01*
X0161118Y0132795D01*
X0161585Y0135741D02*
X0162052Y0135741D01*
X0162052Y0136209D01*
X0161585Y0136209D01*
X0161585Y0135741D01*
X0159250Y0135741D02*
X0162052Y0138077D01*
X0159717Y0138077D02*
X0159250Y0138077D01*
X0159250Y0137610D01*
X0159717Y0137610D01*
X0159717Y0138077D01*
X0145802Y0138077D02*
X0143000Y0135741D01*
X0143000Y0134663D02*
X0143000Y0132795D01*
X0143000Y0133729D02*
X0145802Y0133729D01*
X0144868Y0132795D01*
X0145335Y0135741D02*
X0145802Y0135741D01*
X0145802Y0136209D01*
X0145335Y0136209D01*
X0145335Y0135741D01*
X0143467Y0137610D02*
X0143467Y0138077D01*
X0143000Y0138077D01*
X0143000Y0137610D01*
X0143467Y0137610D01*
X0143000Y0128794D02*
X0143934Y0127393D01*
X0144868Y0128794D01*
X0145802Y0127393D02*
X0143000Y0127393D01*
X0143467Y0126315D02*
X0143000Y0125848D01*
X0143000Y0124914D01*
X0143467Y0124447D01*
X0145335Y0126315D01*
X0143467Y0126315D01*
X0145335Y0126315D02*
X0145802Y0125848D01*
X0145802Y0124914D01*
X0145335Y0124447D01*
X0143467Y0124447D01*
X0143000Y0123368D02*
X0143000Y0121500D01*
X0143000Y0122434D02*
X0145802Y0122434D01*
X0144868Y0121500D01*
X0138802Y0120134D02*
X0138802Y0119200D01*
X0138335Y0118733D01*
X0136467Y0118733D01*
X0136000Y0119200D01*
X0136000Y0120134D01*
X0136467Y0120601D01*
X0138335Y0120601D02*
X0138802Y0120134D01*
X0135533Y0117654D02*
X0135533Y0115786D01*
X0136000Y0114708D02*
X0138802Y0112840D01*
X0138802Y0111761D02*
X0136467Y0111761D01*
X0136000Y0111294D01*
X0136000Y0110360D01*
X0136467Y0109893D01*
X0138802Y0109893D01*
X0138802Y0108815D02*
X0136000Y0108815D01*
X0136000Y0106947D02*
X0138802Y0106947D01*
X0137868Y0107881D01*
X0138802Y0108815D01*
X0138335Y0105868D02*
X0137401Y0105868D01*
X0136934Y0105401D01*
X0136934Y0104000D01*
X0136000Y0104000D02*
X0138802Y0104000D01*
X0138802Y0105401D01*
X0138335Y0105868D01*
X0136934Y0104934D02*
X0136000Y0105868D01*
X0136000Y0112840D02*
X0138802Y0114708D01*
X0190033Y0115286D02*
X0190033Y0117154D01*
X0190967Y0118233D02*
X0190500Y0118700D01*
X0190500Y0119634D01*
X0190967Y0120101D01*
X0190500Y0121179D02*
X0192368Y0123047D01*
X0192835Y0123047D01*
X0193302Y0122580D01*
X0193302Y0121646D01*
X0192835Y0121179D01*
X0192835Y0120101D02*
X0193302Y0119634D01*
X0193302Y0118700D01*
X0192835Y0118233D01*
X0190967Y0118233D01*
X0190500Y0121179D02*
X0190500Y0123047D01*
X0190500Y0114208D02*
X0193302Y0114208D01*
X0191434Y0113274D02*
X0190500Y0114208D01*
X0191434Y0113274D02*
X0190500Y0112340D01*
X0193302Y0112340D01*
X0192835Y0111261D02*
X0193302Y0110794D01*
X0193302Y0109860D01*
X0192835Y0109393D01*
X0190967Y0109393D01*
X0190500Y0109860D01*
X0190500Y0110794D01*
X0190967Y0111261D01*
X0192835Y0111261D01*
X0192835Y0108315D02*
X0191901Y0108315D01*
X0191434Y0107848D01*
X0191434Y0106447D01*
X0190500Y0106447D02*
X0193302Y0106447D01*
X0193302Y0107848D01*
X0192835Y0108315D01*
X0192835Y0105368D02*
X0191901Y0105368D01*
X0191434Y0104901D01*
X0191434Y0103500D01*
X0190500Y0103500D02*
X0193302Y0103500D01*
X0193302Y0104901D01*
X0192835Y0105368D01*
X0191434Y0104434D02*
X0190500Y0105368D01*
X0216303Y0105069D02*
X0217071Y0104302D01*
X0219373Y0104302D01*
X0219373Y0102000D02*
X0219373Y0106604D01*
X0217071Y0106604D01*
X0216303Y0105837D01*
X0216303Y0105069D01*
X0217071Y0104302D02*
X0216303Y0103535D01*
X0216303Y0102767D01*
X0217071Y0102000D01*
X0219373Y0102000D01*
X0220907Y0101233D02*
X0223976Y0101233D01*
X0225511Y0102767D02*
X0226278Y0102000D01*
X0227813Y0102000D01*
X0228580Y0102767D01*
X0227813Y0104302D02*
X0226278Y0104302D01*
X0225511Y0103535D01*
X0225511Y0102767D01*
X0227813Y0104302D02*
X0228580Y0105069D01*
X0228580Y0105837D01*
X0227813Y0106604D01*
X0226278Y0106604D01*
X0225511Y0105837D01*
X0230115Y0106604D02*
X0230115Y0102000D01*
X0230115Y0104302D02*
X0233184Y0104302D01*
X0233184Y0102000D02*
X0233184Y0106604D01*
X0239323Y0106604D02*
X0242392Y0106604D01*
X0240858Y0106604D02*
X0240858Y0102000D01*
X0243927Y0102000D02*
X0246996Y0102000D01*
X0246996Y0106604D01*
X0243927Y0106604D01*
X0248531Y0106604D02*
X0251600Y0106604D01*
X0251600Y0102000D01*
X0251600Y0104302D02*
X0250065Y0104302D01*
X0246996Y0104302D02*
X0245461Y0104302D01*
X0237788Y0101233D02*
X0234719Y0101233D01*
X0261699Y0102000D02*
X0264769Y0102000D01*
X0263234Y0102000D02*
X0263234Y0106604D01*
X0264769Y0105069D01*
X0266303Y0105069D02*
X0267071Y0104302D01*
X0269373Y0104302D01*
X0269373Y0102000D02*
X0269373Y0106604D01*
X0267071Y0106604D01*
X0266303Y0105837D01*
X0266303Y0105069D01*
X0267071Y0104302D02*
X0266303Y0103535D01*
X0266303Y0102767D01*
X0267071Y0102000D01*
X0269373Y0102000D01*
X0270907Y0101233D02*
X0273976Y0101233D01*
X0275511Y0102767D02*
X0276278Y0102000D01*
X0277813Y0102000D01*
X0278580Y0102767D01*
X0277813Y0104302D02*
X0276278Y0104302D01*
X0275511Y0103535D01*
X0275511Y0102767D01*
X0277813Y0104302D02*
X0278580Y0105069D01*
X0278580Y0105837D01*
X0277813Y0106604D01*
X0276278Y0106604D01*
X0275511Y0105837D01*
X0280115Y0106604D02*
X0280115Y0102000D01*
X0280115Y0104302D02*
X0283184Y0104302D01*
X0283184Y0102000D02*
X0283184Y0106604D01*
X0289323Y0106604D02*
X0292392Y0106604D01*
X0290858Y0106604D02*
X0290858Y0102000D01*
X0293927Y0102000D02*
X0296996Y0102000D01*
X0296996Y0106604D01*
X0293927Y0106604D01*
X0298531Y0106604D02*
X0301600Y0106604D01*
X0301600Y0102000D01*
X0301600Y0104302D02*
X0300065Y0104302D01*
X0296996Y0104302D02*
X0295461Y0104302D01*
X0287788Y0101233D02*
X0284719Y0101233D01*
X0316303Y0102767D02*
X0317071Y0102000D01*
X0319373Y0102000D01*
X0319373Y0106604D01*
X0317071Y0106604D01*
X0316303Y0105837D01*
X0316303Y0105069D01*
X0317071Y0104302D01*
X0319373Y0104302D01*
X0317071Y0104302D02*
X0316303Y0103535D01*
X0316303Y0102767D01*
X0320907Y0101233D02*
X0323976Y0101233D01*
X0325511Y0102767D02*
X0326278Y0102000D01*
X0327813Y0102000D01*
X0328580Y0102767D01*
X0327813Y0104302D02*
X0326278Y0104302D01*
X0325511Y0103535D01*
X0325511Y0102767D01*
X0327813Y0104302D02*
X0328580Y0105069D01*
X0328580Y0105837D01*
X0327813Y0106604D01*
X0326278Y0106604D01*
X0325511Y0105837D01*
X0330115Y0102000D02*
X0333184Y0102000D01*
X0333184Y0106604D01*
X0339323Y0106604D02*
X0342392Y0106604D01*
X0340858Y0106604D02*
X0340858Y0102000D01*
X0343927Y0102000D02*
X0346996Y0102000D01*
X0346996Y0106604D01*
X0343927Y0106604D01*
X0348531Y0106604D02*
X0351600Y0106604D01*
X0351600Y0102000D01*
X0351600Y0104302D02*
X0350065Y0104302D01*
X0346996Y0104302D02*
X0345461Y0104302D01*
X0337788Y0101233D02*
X0334719Y0101233D01*
X0361699Y0102000D02*
X0364769Y0102000D01*
X0363234Y0102000D02*
X0363234Y0106604D01*
X0364769Y0105069D01*
X0366303Y0105069D02*
X0367071Y0104302D01*
X0369373Y0104302D01*
X0369373Y0102000D02*
X0369373Y0106604D01*
X0367071Y0106604D01*
X0366303Y0105837D01*
X0366303Y0105069D01*
X0367071Y0104302D02*
X0366303Y0103535D01*
X0366303Y0102767D01*
X0367071Y0102000D01*
X0369373Y0102000D01*
X0370907Y0101233D02*
X0373976Y0101233D01*
X0375511Y0102767D02*
X0376278Y0102000D01*
X0377813Y0102000D01*
X0378580Y0102767D01*
X0377813Y0104302D02*
X0376278Y0104302D01*
X0375511Y0103535D01*
X0375511Y0102767D01*
X0377813Y0104302D02*
X0378580Y0105069D01*
X0378580Y0105837D01*
X0377813Y0106604D01*
X0376278Y0106604D01*
X0375511Y0105837D01*
X0380115Y0102000D02*
X0383184Y0102000D01*
X0383184Y0106604D01*
X0389323Y0106604D02*
X0392392Y0106604D01*
X0390858Y0106604D02*
X0390858Y0102000D01*
X0393927Y0102000D02*
X0396996Y0102000D01*
X0396996Y0106604D01*
X0393927Y0106604D01*
X0398531Y0106604D02*
X0401600Y0106604D01*
X0401600Y0102000D01*
X0401600Y0104302D02*
X0400065Y0104302D01*
X0396996Y0104302D02*
X0395461Y0104302D01*
X0387788Y0101233D02*
X0384719Y0101233D01*
X0301600Y0066604D02*
X0301600Y0062000D01*
X0251600Y0064302D02*
X0250065Y0064302D01*
X0076302Y0096500D02*
X0076302Y0097901D01*
X0075835Y0098368D01*
X0074901Y0098368D01*
X0074434Y0097901D01*
X0074434Y0096500D01*
X0073500Y0096500D02*
X0076302Y0096500D01*
X0074434Y0097434D02*
X0073500Y0098368D01*
X0073967Y0099447D02*
X0073500Y0099914D01*
X0073500Y0100848D01*
X0073967Y0101315D01*
X0074901Y0101315D01*
X0074901Y0100381D01*
X0075835Y0101315D02*
X0076302Y0100848D01*
X0076302Y0099914D01*
X0075835Y0099447D01*
X0073967Y0099447D01*
X0073500Y0102393D02*
X0076302Y0102393D01*
X0073500Y0104261D01*
X0076302Y0104261D01*
X0076302Y0105340D02*
X0076302Y0106741D01*
X0075835Y0107208D01*
X0073967Y0107208D01*
X0073500Y0106741D01*
X0073500Y0105340D01*
X0076302Y0105340D01*
X0073033Y0108286D02*
X0073033Y0110154D01*
X0074434Y0111233D02*
X0073500Y0112167D01*
X0074434Y0113101D01*
X0076302Y0113101D01*
X0076302Y0114179D02*
X0076302Y0115580D01*
X0075835Y0116047D01*
X0075368Y0116047D01*
X0074901Y0115580D01*
X0074901Y0114179D01*
X0073500Y0114179D02*
X0073500Y0115580D01*
X0073967Y0116047D01*
X0074434Y0116047D01*
X0074901Y0115580D01*
X0074901Y0117126D02*
X0074901Y0118994D01*
X0075368Y0118994D02*
X0073500Y0118994D01*
X0075368Y0118994D02*
X0076302Y0118060D01*
X0075368Y0117126D01*
X0073500Y0117126D01*
X0073500Y0114179D02*
X0076302Y0114179D01*
X0076302Y0111233D02*
X0074434Y0111233D01*
X0076302Y0120072D02*
X0076302Y0121940D01*
X0076302Y0121006D02*
X0073500Y0121006D01*
X0039600Y0121302D02*
X0039600Y0118500D01*
X0039600Y0119434D02*
X0038199Y0119434D01*
X0037732Y0119901D01*
X0037732Y0120835D01*
X0038199Y0121302D01*
X0039600Y0121302D01*
X0038666Y0119434D02*
X0037732Y0118500D01*
X0036653Y0118500D02*
X0036653Y0121302D01*
X0035252Y0121302D01*
X0034785Y0120835D01*
X0034785Y0119901D01*
X0035252Y0119434D01*
X0036653Y0119434D01*
X0033707Y0118967D02*
X0033240Y0118500D01*
X0032306Y0118500D01*
X0031839Y0118967D01*
X0031839Y0120835D01*
X0032306Y0121302D01*
X0033240Y0121302D01*
X0033707Y0120835D01*
X0033707Y0118967D01*
X0030760Y0118500D02*
X0029826Y0119434D01*
X0028892Y0118500D01*
X0028892Y0121302D01*
X0030760Y0121302D02*
X0030760Y0118500D01*
X0027814Y0118033D02*
X0025946Y0118033D01*
X0024867Y0119434D02*
X0023933Y0118500D01*
X0022999Y0119434D01*
X0022999Y0121302D01*
X0021921Y0121302D02*
X0020520Y0121302D01*
X0020053Y0120835D01*
X0020053Y0120368D01*
X0020520Y0119901D01*
X0021921Y0119901D01*
X0021921Y0118500D02*
X0020520Y0118500D01*
X0020053Y0118967D01*
X0020053Y0119434D01*
X0020520Y0119901D01*
X0018974Y0119901D02*
X0017106Y0119901D01*
X0017106Y0120368D02*
X0017106Y0118500D01*
X0017106Y0120368D02*
X0018040Y0121302D01*
X0018974Y0120368D01*
X0018974Y0118500D01*
X0021921Y0118500D02*
X0021921Y0121302D01*
X0024867Y0121302D02*
X0024867Y0119434D01*
X0016028Y0121302D02*
X0014160Y0121302D01*
X0015094Y0121302D02*
X0015094Y0118500D01*
X0216303Y0142767D02*
X0217071Y0142000D01*
X0218605Y0142000D01*
X0219373Y0142767D01*
X0219373Y0145837D01*
X0218605Y0146604D01*
X0217071Y0146604D01*
X0216303Y0145837D01*
X0220907Y0141233D02*
X0223976Y0141233D01*
X0225511Y0142767D02*
X0226278Y0142000D01*
X0227813Y0142000D01*
X0228580Y0142767D01*
X0227813Y0144302D02*
X0226278Y0144302D01*
X0225511Y0143535D01*
X0225511Y0142767D01*
X0227813Y0144302D02*
X0228580Y0145069D01*
X0228580Y0145837D01*
X0227813Y0146604D01*
X0226278Y0146604D01*
X0225511Y0145837D01*
X0230115Y0146604D02*
X0230115Y0142000D01*
X0230115Y0144302D02*
X0233184Y0144302D01*
X0233184Y0142000D02*
X0233184Y0146604D01*
X0239323Y0146604D02*
X0242392Y0146604D01*
X0240858Y0146604D02*
X0240858Y0142000D01*
X0243927Y0142000D02*
X0246996Y0142000D01*
X0246996Y0146604D01*
X0243927Y0146604D01*
X0248531Y0146604D02*
X0251600Y0146604D01*
X0251600Y0142000D01*
X0251600Y0144302D02*
X0250065Y0144302D01*
X0246996Y0144302D02*
X0245461Y0144302D01*
X0237788Y0141233D02*
X0234719Y0141233D01*
X0261699Y0142000D02*
X0264769Y0142000D01*
X0263234Y0142000D02*
X0263234Y0146604D01*
X0264769Y0145069D01*
X0266303Y0145837D02*
X0267071Y0146604D01*
X0268605Y0146604D01*
X0269373Y0145837D01*
X0269373Y0142767D01*
X0268605Y0142000D01*
X0267071Y0142000D01*
X0266303Y0142767D01*
X0270907Y0141233D02*
X0273976Y0141233D01*
X0275511Y0142767D02*
X0276278Y0142000D01*
X0277813Y0142000D01*
X0278580Y0142767D01*
X0277813Y0144302D02*
X0276278Y0144302D01*
X0275511Y0143535D01*
X0275511Y0142767D01*
X0277813Y0144302D02*
X0278580Y0145069D01*
X0278580Y0145837D01*
X0277813Y0146604D01*
X0276278Y0146604D01*
X0275511Y0145837D01*
X0280115Y0146604D02*
X0280115Y0142000D01*
X0280115Y0144302D02*
X0283184Y0144302D01*
X0283184Y0142000D02*
X0283184Y0146604D01*
X0289323Y0146604D02*
X0292392Y0146604D01*
X0290858Y0146604D02*
X0290858Y0142000D01*
X0293927Y0142000D02*
X0296996Y0142000D01*
X0296996Y0146604D01*
X0293927Y0146604D01*
X0298531Y0146604D02*
X0301600Y0146604D01*
X0301600Y0142000D01*
X0301600Y0144302D02*
X0300065Y0144302D01*
X0296996Y0144302D02*
X0295461Y0144302D01*
X0287788Y0141233D02*
X0284719Y0141233D01*
X0311699Y0142000D02*
X0314769Y0142000D01*
X0313234Y0142000D02*
X0313234Y0146604D01*
X0314769Y0145069D01*
X0316303Y0145837D02*
X0317071Y0146604D01*
X0318605Y0146604D01*
X0319373Y0145837D01*
X0319373Y0142767D01*
X0318605Y0142000D01*
X0317071Y0142000D01*
X0316303Y0142767D01*
X0320907Y0141233D02*
X0323976Y0141233D01*
X0325511Y0142767D02*
X0326278Y0142000D01*
X0327813Y0142000D01*
X0328580Y0142767D01*
X0327813Y0144302D02*
X0326278Y0144302D01*
X0325511Y0143535D01*
X0325511Y0142767D01*
X0327813Y0144302D02*
X0328580Y0145069D01*
X0328580Y0145837D01*
X0327813Y0146604D01*
X0326278Y0146604D01*
X0325511Y0145837D01*
X0330115Y0142000D02*
X0333184Y0142000D01*
X0333184Y0146604D01*
X0339323Y0146604D02*
X0342392Y0146604D01*
X0340858Y0146604D02*
X0340858Y0142000D01*
X0343927Y0142000D02*
X0346996Y0142000D01*
X0346996Y0146604D01*
X0343927Y0146604D01*
X0348531Y0146604D02*
X0351600Y0146604D01*
X0351600Y0142000D01*
X0351600Y0144302D02*
X0350065Y0144302D01*
X0346996Y0144302D02*
X0345461Y0144302D01*
X0337788Y0141233D02*
X0334719Y0141233D01*
X0366303Y0142767D02*
X0367071Y0142000D01*
X0368605Y0142000D01*
X0369373Y0142767D01*
X0369373Y0145837D01*
X0368605Y0146604D01*
X0367071Y0146604D01*
X0366303Y0145837D01*
X0370907Y0141233D02*
X0373976Y0141233D01*
X0375511Y0142767D02*
X0376278Y0142000D01*
X0377813Y0142000D01*
X0378580Y0142767D01*
X0377813Y0144302D02*
X0376278Y0144302D01*
X0375511Y0143535D01*
X0375511Y0142767D01*
X0377813Y0144302D02*
X0378580Y0145069D01*
X0378580Y0145837D01*
X0377813Y0146604D01*
X0376278Y0146604D01*
X0375511Y0145837D01*
X0380115Y0142000D02*
X0383184Y0142000D01*
X0383184Y0146604D01*
X0389323Y0146604D02*
X0392392Y0146604D01*
X0390858Y0146604D02*
X0390858Y0142000D01*
X0393927Y0142000D02*
X0396996Y0142000D01*
X0396996Y0146604D01*
X0393927Y0146604D01*
X0398531Y0146604D02*
X0401600Y0146604D01*
X0401600Y0142000D01*
X0401600Y0144302D02*
X0400065Y0144302D01*
X0396996Y0144302D02*
X0395461Y0144302D01*
X0387788Y0141233D02*
X0384719Y0141233D01*
D17*
X0071800Y0085800D03*
D18*
X0182646Y0071800D03*
D19*
X0252200Y0086800D03*
X0302200Y0086800D03*
X0352200Y0086800D03*
X0402200Y0086800D03*
X0402200Y0046800D03*
X0352200Y0046800D03*
X0302200Y0046800D03*
X0252200Y0046800D03*
X0252200Y0126800D03*
X0302200Y0126800D03*
X0352200Y0126800D03*
X0402200Y0126800D03*
D20*
X0051800Y0082200D03*
D21*
X0183950Y0112401D02*
X0186852Y0112401D01*
X0185401Y0110950D01*
X0185401Y0112885D01*
X0184434Y0113897D02*
X0183950Y0113897D01*
X0184434Y0113897D02*
X0186369Y0115831D01*
X0186852Y0115831D01*
X0186852Y0113897D01*
X0186852Y0116843D02*
X0183950Y0116843D01*
X0184917Y0116843D02*
X0185885Y0118294D01*
X0184917Y0116843D02*
X0183950Y0118294D01*
X0183950Y0122245D02*
X0183950Y0124180D01*
X0183950Y0123212D02*
X0186852Y0123212D01*
X0185885Y0122245D01*
X0186369Y0125191D02*
X0186852Y0125191D01*
X0186852Y0125675D01*
X0186369Y0125675D01*
X0186369Y0125191D01*
X0183950Y0125191D02*
X0186852Y0127610D01*
X0184434Y0127610D02*
X0183950Y0127610D01*
X0183950Y0127126D01*
X0184434Y0127126D01*
X0184434Y0127610D01*
M02*
