G75*
%MOIN*%
%OFA0B0*%
%FSLAX25Y25*%
%IPPOS*%
%LPD*%
%AMOC8*
5,1,8,0,0,1.08239X$1,22.5*
%
%ADD10C,0.12217*%
%ADD11R,0.07099X0.08280*%
%ADD12OC8,0.07100*%
%ADD13C,0.07100*%
%ADD14R,0.07887X0.07493*%
%ADD15R,0.07200X0.03200*%
%ADD16R,0.07099X0.06312*%
%ADD17R,0.06312X0.07099*%
%ADD18R,0.06706X0.05918*%
%ADD19R,0.05918X0.06706*%
%ADD20R,0.04737X0.05131*%
%ADD21C,0.06737*%
%ADD22C,0.06800*%
D10*
X0021800Y0036800D03*
X0021800Y0131800D03*
X0436800Y0131800D03*
X0436800Y0036800D03*
D11*
X0206800Y0055304D03*
X0206800Y0068296D03*
X0151800Y0063296D03*
X0151800Y0050304D03*
X0146800Y0097804D03*
X0146800Y0110796D03*
X0206800Y0115796D03*
X0206800Y0102804D03*
D12*
X0019800Y0101800D03*
X0019800Y0066800D03*
D13*
X0033800Y0066800D03*
X0033800Y0101800D03*
D14*
X0167479Y0120550D03*
X0183621Y0120550D03*
X0184871Y0074300D03*
X0168729Y0074300D03*
D15*
X0166800Y0061800D03*
X0166800Y0056800D03*
X0166800Y0051800D03*
X0166800Y0046800D03*
X0191800Y0046800D03*
X0191800Y0051800D03*
X0191800Y0056800D03*
X0191800Y0061800D03*
X0191800Y0094300D03*
X0191800Y0099300D03*
X0191800Y0104300D03*
X0191800Y0109300D03*
X0166800Y0109300D03*
X0166800Y0104300D03*
X0166800Y0099300D03*
X0166800Y0094300D03*
D16*
X0056800Y0095184D03*
X0056800Y0085916D03*
D17*
X0065916Y0046800D03*
X0075184Y0046800D03*
X0075184Y0036800D03*
X0065916Y0036800D03*
D18*
X0126800Y0037954D03*
X0136800Y0037954D03*
X0136800Y0045646D03*
X0126800Y0045646D03*
X0136800Y0077954D03*
X0156800Y0077954D03*
X0156800Y0085646D03*
X0136800Y0085646D03*
X0046800Y0082954D03*
X0046800Y0090646D03*
D19*
X0046704Y0046800D03*
X0054396Y0046800D03*
X0054396Y0036800D03*
X0046704Y0036800D03*
D20*
X0178454Y0036800D03*
X0185146Y0036800D03*
X0252204Y0061800D03*
X0258896Y0061800D03*
X0185146Y0086800D03*
X0178454Y0086800D03*
X0252204Y0101800D03*
X0258896Y0101800D03*
X0348454Y0101800D03*
X0355146Y0101800D03*
X0355146Y0136800D03*
X0348454Y0136800D03*
X0257646Y0138050D03*
X0250954Y0138050D03*
X0349704Y0056800D03*
X0356396Y0056800D03*
D21*
X0109769Y0056800D02*
X0103831Y0056800D01*
X0103831Y0046800D02*
X0109769Y0046800D01*
X0109769Y0036800D02*
X0103831Y0036800D01*
X0103831Y0071800D02*
X0109769Y0071800D01*
X0109769Y0081800D02*
X0103831Y0081800D01*
X0103831Y0091800D02*
X0109769Y0091800D01*
X0109769Y0106800D02*
X0103831Y0106800D01*
X0103831Y0116800D02*
X0109769Y0116800D01*
X0109769Y0126800D02*
X0103831Y0126800D01*
D22*
X0089800Y0106800D02*
X0083800Y0106800D01*
X0083800Y0096800D02*
X0089800Y0096800D01*
X0089800Y0086800D02*
X0083800Y0086800D01*
X0083800Y0076800D02*
X0089800Y0076800D01*
X0089800Y0066800D02*
X0083800Y0066800D01*
X0083800Y0056800D02*
X0089800Y0056800D01*
M02*
